<?xml version="1.0" standalone="no"?>
<!DOCTYPE svg PUBLIC "-//W3C//DTD SVG 1.1//EN" "http://www.w3.org/Graphics/SVG/1.1/DTD/svg11.dtd" >
<svg xmlns="http://www.w3.org/2000/svg" xmlns:xlink="http://www.w3.org/1999/xlink" version="1.1">
<metadata></metadata>
<defs>
<font id="karlinghard_free_regular" horiz-adv-x="512" >
<font-face units-per-em="2048" ascent="1536" descent="-512" />
<missing-glyph horiz-adv-x="500" />
<glyph horiz-adv-x="0" />
<glyph horiz-adv-x="0" />
<glyph unicode="&#xd;" />
<glyph unicode=" " />
<glyph unicode="0" horiz-adv-x="704" d="M33 449q0 94 34.5 187t87 176t114 154.5t113.5 124t87 81.5l35 30q0 4 20.5 23.5t57.5 23.5q18 2 55 21.5t80 19.5q33 0 53.5 -15t20.5 -20q0 -2 -1.5 -4t-1.5 -4q-8 0 -8 2q-4 10 -22.5 13.5t-28.5 3.5q-16 0 -32.5 -5.5t-47.5 -15.5v-4q82 -33 126 -88t44 -145 q0 -68 -28.5 -150t-75.5 -166t-110.5 -163.5t-133.5 -141t-141.5 -98.5t-134.5 -37q-86 0 -124 55t-38 142zM74 444q0 -66 27.5 -109.5t93.5 -43.5q55 0 119.5 32.5t129 88t125 128t107.5 152.5t75.5 162t30.5 156q-6 59 -27.5 100t-49 65.5t-54 35t-41.5 10.5 q-18 0 -64 -33t-106.5 -90.5t-125 -133t-118 -161.5t-88 -178.5t-34.5 -180.5z" />
<glyph unicode="1" horiz-adv-x="520" d="M16 311q0 12 11 13q10 0 10 -9v-7t8 -9q27 -10 37 -10q12 0 30.5 2t24.5 14q45 90 94.5 184.5t91.5 172t68.5 129t26.5 55.5q-16 -14 -56 -50t-87.5 -73t-95.5 -65.5t-81 -28.5q-10 0 -19 3t-9 13q0 6 7 13.5t16 12.5t16.5 8t9.5 1q4 -4 -8.5 -13.5t-12.5 -15.5 q23 0 60 21.5t77.5 51.5t80.5 63.5t69 60.5q57 55 108.5 132t94.5 145.5t75.5 116.5t53.5 48q14 0 14 -16q-84 -125 -178 -279q-80 -131 -184 -309t-215 -389q20 4 38.5 6t40.5 2q33 0 62 -8t29 -41q0 -4 -5 -4q-6 0 -6 6q-4 23 -22.5 28t-42.5 5q-41 0 -84 -12.5t-76 -12.5 q-37 0 -54.5 15.5t-17.5 29.5z" />
<glyph unicode="2" horiz-adv-x="630" d="M20 336q0 20 37 43.5t90 23.5q16 0 25 -2q6 0 12 -2q18 0 61.5 34t98.5 91.5t114.5 132t108.5 155.5t81 163t32 153q0 63 -28.5 99.5t-92.5 36.5q-68 0 -141.5 -32t-135 -85t-102.5 -122t-41 -140q0 -29 12.5 -53.5t41.5 -24.5q25 0 57.5 16.5t69 46t73.5 72.5t68 96 q14 27 18 32t8 5q6 0 7 -6q0 -2 -28 -46t-72 -96.5t-97 -95.5t-104 -43q-37 0 -54.5 30t-17.5 67q0 74 42 145.5t106.5 126.5t142 90t151.5 35q72 0 105.5 -43t33.5 -113q0 -98 -46 -201.5t-117.5 -201.5t-156.5 -185.5t-165 -150.5q27 -16 47.5 -39.5t42 -46t48 -38 t67.5 -15.5q23 0 47 10q6 6 12 6q2 0 6 -4q0 -10 -26.5 -17t-46.5 -7q-45 0 -77 18t-54.5 41.5t-42 46.5t-43.5 33q-10 -6 -27.5 -17.5t-37 -20.5t-40 -16.5t-39.5 -7.5q-33 0 -33 23zM39 336q31 0 65.5 13.5t57.5 33.5q-35 0 -68 -8t-55 -39z" />
<glyph unicode="3" horiz-adv-x="649" d="M41 414q0 53 29.5 93t70.5 68.5t82 43t66 14.5q18 0 33 -6q8 -4 11 -8.5t-5 -4.5q-6 2 -11 4q-6 0 -12 1.5t-12 1.5q-20 0 -59 -14.5t-78 -42t-68 -67.5t-29 -89q0 -33 16.5 -56.5t43 -40t60.5 -24.5t67 -8q68 0 133 34.5t115.5 87t81 115t30.5 115.5q0 49 -22.5 80.5 t-59.5 50t-84 26t-96 7.5q-41 0 -79 -6.5t-66 -14.5q-33 -8 -62 -20q-8 0 -10 4t-2 8q0 6 43 35.5t106.5 74t139 97.5t139 102t106.5 90t43 62q0 12 -25.5 19t-60 11.5t-69.5 6.5t-53 2h-53.5t-55.5 -2q0 -10 -4 -11q-6 0 -21.5 3.5t-15.5 13.5q0 8 21.5 13t48 7t52.5 3 t34 1q25 0 64.5 -2t76.5 -8t64.5 -19.5t27.5 -37.5q0 -23 -37 -63t-93 -85t-121.5 -92t-122 -86t-95.5 -65.5t-41 -30.5q16 4 45 7t74 3q53 0 104.5 -9t90 -30.5t62.5 -57.5t24 -91q0 -61 -33 -126t-87 -119t-122 -89t-137 -35q-37 0 -73 10.5t-65.5 29.5t-47 48t-17.5 68z " />
<glyph unicode="4" horiz-adv-x="575" d="M0 778q0 20 22.5 40t71.5 20h17.5t15.5 -2q18 0 46 22.5t58.5 57t62.5 76.5t59.5 82t48 73t28.5 47q20 35 24.5 51.5t14.5 16.5q8 0 8 -11q0 -20 -21.5 -66t-60.5 -106.5t-92.5 -126.5t-116.5 -127q4 -4 7 -4q53 -23 83.5 -36t51 -20t39 -10t45.5 -7q0 2 18.5 41.5 t46 100t60 130.5t63.5 130t53.5 100t30.5 40q4 0 8 -2t4 -10q0 -4 -14 -36t-36.5 -79t-49.5 -104.5t-54.5 -114.5t-51 -109.5t-37.5 -89.5h45q23 0 43 2.5t41 10.5q2 2 6 2q6 0 8 -6q0 -10 -22.5 -16.5t-51 -9.5t-53.5 -5t-31 -2q0 -2 -12 -28.5t-30.5 -68.5t-40 -93.5 t-40 -100.5t-32 -93t-17.5 -69q6 4 11.5 7.5t9.5 3.5q2 0 3 -1.5t5 -1.5q0 -8 -2 -10q-6 -4 -13.5 -10t-15.5 -6q-10 0 -13 8t-3 18q0 35 20.5 100.5t47 136.5t51 130t32.5 78q-4 2 -8 2q-37 0 -73.5 12.5t-67.5 25.5t-55.5 25.5t-36.5 12.5q-10 0 -17.5 -8.5t-15.5 -12.5 q-18 -10 -41 -21.5t-47 -11.5q-37 0 -37 33zM31 778q16 0 34.5 9.5t30.5 19.5q-16 0 -38.5 -3t-26.5 -26z" />
<glyph unicode="5" horiz-adv-x="720" d="M41 379q0 39 27.5 70.5t67.5 53t87 34t86 12.5q10 0 16.5 -1t16.5 -3q2 0 3 -2t5 -4l-8 -4q-4 0 -8 2h-23q-31 0 -72.5 -11.5t-78.5 -32t-62.5 -48t-25.5 -62.5q0 -51 47 -72.5t102 -21.5q78 0 164 32.5t157.5 88t118 127t46.5 147.5q0 47 -19.5 83t-50.5 59.5t-71 34.5 t-81 11q-76 0 -141 -38q-20 -10 -34.5 -21.5t-24.5 -11.5q-6 0 -12.5 4t-6.5 12q0 6 12.5 34t33 69t44 89t47 94t42 84t26.5 56q-37 -2 -43 -3t-14 -1q-39 0 -57.5 9t-28.5 16q-6 6 -6 10q0 10 10 10q4 0 6 -2q35 -14 72 -14q47 0 113.5 12t135.5 12q94 0 138.5 -36.5 t44.5 -75.5q0 -20 -11 -37h-6q2 4 1 6t1 6q2 6 2 19q0 29 -31.5 59.5t-115.5 30.5q-12 0 -40 -7.5t-73 -46.5t-107.5 -120.5t-142.5 -233.5q18 6 55.5 24.5t102.5 18.5q49 0 94 -15.5t81 -44t56.5 -67.5t20.5 -88q0 -80 -47 -156.5t-121 -137t-165 -96.5t-181 -36 q-78 0 -126 34t-48 87z" />
<glyph unicode="6" horiz-adv-x="620" d="M41 389q0 70 40 164t103.5 194.5t141 197.5t152.5 175t139.5 125t99.5 47q10 0 15 -7t5 -15t-2 -10q0 -6 -8 -7q-8 0 -8 7q-2 2 -2 4v8q-55 -29 -125 -90.5t-140.5 -141t-137 -172t-119 -181.5t-84 -168t-31.5 -134q0 -41 16.5 -68.5t57.5 -27.5q37 0 81 23.5t89 62.5 t88 87t75.5 97t53 96t20.5 80q0 43 -35 43q-41 0 -97 -29.5t-109.5 -72.5t-95.5 -89t-54 -81q-4 -4 -6 -4q-4 0 -4 8q0 12 18.5 40t48 60.5t67.5 68.5t78 64.5t78.5 47t69.5 18.5q70 0 70 -70q0 -35 -20.5 -85t-55.5 -103t-81 -105.5t-95 -94.5t-98.5 -67.5t-92.5 -25.5 q-53 0 -79.5 37t-26.5 94z" />
<glyph unicode="7" horiz-adv-x="557" d="M37 1153q0 12 11 20.5t26.5 13.5t32 7t28.5 2q41 0 99.5 -13.5t136.5 -13.5q25 0 62.5 3.5t76.5 10.5t72.5 19t48.5 31q10 14 35.5 35.5t44.5 21.5q16 0 16 -16q0 -8 -8 -17.5t-20.5 -18.5t-24.5 -16.5t-19 -11.5q-8 -4 -30.5 -37.5t-50 -81t-58.5 -101.5t-57.5 -102 t-45 -83t-22.5 -41q31 -8 49.5 -12t40.5 -4q23 0 46.5 5t39.5 21q2 2 11 4q-16 -29 -50 -38t-65 -9q-20 0 -36.5 3t-45.5 7q-8 -14 -28.5 -56t-46 -95t-54.5 -111.5t-51.5 -107.5t-38.5 -81l-15 -32h-6h-6v6q0 2 15.5 37t39 88t50 115.5t50 116t39 90.5t17.5 39 q-6 0 -32.5 4t-92.5 4q-10 0 -30.5 -3t-26.5 -14q-4 -10 -17 -10q-2 0 -2 1t-2 1q-2 2 -2 8q0 2 4.5 8.5t8.5 10.5q16 14 44.5 18t51.5 4q37 0 66.5 -5t41.5 -5q53 104 111.5 205.5t120.5 202.5q-27 -8 -82 -21.5t-137 -13.5q-45 0 -80 5t-63.5 10t-54.5 10.5t-50 5.5 q-16 0 -42 -4.5t-32 -20.5q6 -2 19 -10q-4 0 -6.5 -1t-6.5 -1q-18 0 -18 14z" />
<glyph unicode="8" horiz-adv-x="528" d="M0 401q0 49 16.5 115t45 135.5t67.5 137t81 123t86 93.5t85 46q-10 29 -17.5 54t-7.5 52q0 55 40 95t93 40q41 0 63.5 -23.5t22.5 -58.5q0 -41 -20 -88t-47 -82q-4 -4 -21.5 -23.5t-23.5 -19.5t-6 9q25 29 45 61q16 29 30.5 63.5t14.5 75.5q0 59 -60 60q-41 0 -72.5 -31 t-31.5 -78q0 -29 17.5 -74t38 -98t38 -109.5t17.5 -109.5q0 -106 -45.5 -200.5t-109 -164t-129 -109.5t-108.5 -40q-39 0 -70.5 32.5t-31.5 116.5zM39 408q0 -20 3 -41t10 -37.5t19.5 -26.5t32.5 -10q33 0 93.5 34.5t121 97t104.5 148.5t44 191q0 35 -8 72.5t-18.5 68.5 t-20.5 52.5t-14 23.5q-2 2 -4.5 9t-3.5 15.5t-4 15.5t-9 7q-20 0 -53 -29.5t-72 -78t-78 -113t-70.5 -133t-52 -138t-20.5 -128.5z" />
<glyph unicode="9" d="M0 352q0 41 21.5 90.5t54.5 92.5t72.5 72.5t74.5 29.5q2 0 4 -2l2 -2q0 -6 -4 -6q-2 -2 -8 -2q-31 -4 -63.5 -33t-60 -68t-45 -82t-17.5 -77q0 -31 11 -54.5t42 -23.5q49 0 106.5 48t116 122.5t112.5 168t96 184.5t67.5 170t25.5 126q0 2 -1 4t-1 4q-4 -2 -15 -10 t-21.5 -17.5t-19.5 -18.5t-11 -15q-2 -12 -4 -13q-6 0 -11 2q-55 -51 -107 -106t-99.5 -99t-87.5 -73t-70 -29q-31 0 -44.5 24.5t-13.5 55.5q0 76 43 160t103.5 153.5t126 114.5t108.5 45q39 0 60.5 -31.5t21.5 -70.5q0 -16 -3 -30.5t-7 -37.5q23 18 35 27.5t24 9.5 q16 0 21.5 -14.5t5.5 -32.5q0 -49 -25.5 -132t-67.5 -178.5t-98.5 -192.5t-118 -176t-124 -128t-119.5 -49q-43 0 -65.5 28.5t-22.5 71.5zM145 809q0 -14 3.5 -24.5t15.5 -10.5q14 0 38.5 15.5t50.5 36t49.5 41t35.5 32.5q80 82 120 120t55 58.5t17.5 35.5t8.5 52 q0 27 -10.5 56.5t-45.5 29.5t-92 -45t-111.5 -111.5t-94.5 -143.5t-40 -142z" />
<glyph unicode="@" horiz-adv-x="452" d="M41 291q0 70 35 139.5t86 125.5t106.5 92t96.5 36q47 0 66.5 -39t19.5 -88q0 -45 -10.5 -87t-26 -75t-32.5 -52t-32 -19q-16 0 -23.5 13t-10.5 33.5t-3 44.5t-4 42q-61 -61 -99 -109.5t-58 -48.5q-16 0 -17 20q0 10 16.5 47t39 76t48 70t46.5 31q12 0 19 -8.5t11 -20.5 t7.5 -24.5t5.5 -18.5q10 -16 7 -39.5t3 -73.5q2 -4 4 -10t10 -6q6 0 18.5 16.5t26 45t22.5 66.5t9 83q0 37 -12.5 71.5t-50.5 34.5q-37 0 -88.5 -33.5t-99.5 -87t-82 -120t-34 -133.5q0 -47 18.5 -69.5t65.5 -22.5q41 0 68 19t39 26l8 4q4 0 4 -4t-2 -4.5t-4 -2.5 q-31 -23 -55.5 -37t-65.5 -14q-51 0 -73.5 30t-22.5 81zM160 322q41 33 72.5 77.5t72.5 79.5q-16 41 -20 41q-8 0 -25.5 -20.5t-37 -50t-37 -64t-25.5 -63.5z" />
<glyph unicode="A" horiz-adv-x="1187" d="M-55 575q0 25 12 41.5t31.5 24.5t45 11t50.5 3q23 0 70 -5t104 -11t117.5 -15.5t111 -15.5t83.5 -11l32 -5q2 0 46 39t113.5 100.5t153.5 137t166 151.5t152 142.5t108 109.5q37 39 69 89t59.5 95t49 77t37.5 32q14 0 15 -17q0 -16 -31 -59t-70 -98q-27 -37 -58.5 -103.5 t-65 -147.5t-65.5 -169t-58.5 -166t-44 -139t-23.5 -88q6 0 19.5 5t28 12t24.5 18.5t10 25.5q0 4 -2 13.5t2 9.5q8 0 10 -10.5t2 -14.5q0 -16 -12 -30.5t-29.5 -25t-34 -16.5t-24.5 -6q-2 -6 -10.5 -43t-21.5 -90t-27.5 -116.5t-25.5 -126t-19.5 -116t-8.5 -85.5 q0 -51 11 -82q2 -14 8 -25q0 -8 -2 -10h-4q-4 0 -13 12q-14 25 -17 53.5t-3 59.5q0 78 14 169t32.5 173t35 143.5t18.5 79.5q-47 -6 -89 -7t-126 -1q-47 0 -97 3t-93 7q-49 4 -97 10q-2 0 -42 -35.5t-97 -96t-123.5 -139.5t-123 -166t-94.5 -177t-38 -170q0 -45 14.5 -77 t59.5 -40q2 0 8 -1t6 -7q0 -18 -18 -18q-10 0 -24.5 7t-29 24.5t-23.5 46t-9 69.5q0 98 53 207.5t130 214t164 199t157 161.5q-2 2 -37 7.5t-86 12.5t-112.5 15t-118 15.5t-101.5 11.5t-61 4q-68 0 -80.5 -12.5t-12.5 -28.5q0 -12 2.5 -23.5t2.5 -17.5q0 -14 -11 -16 q-16 0 -20 13t-4 25zM629 586q82 -10 161.5 -17t163.5 -6q41 0 82 2t86 8q45 174 109.5 351.5t134.5 343.5z" />
<glyph unicode="B" horiz-adv-x="1769" d="M2 301q0 57 14.5 112.5t35 98.5t40 69.5t29.5 26.5q18 0 18 -18q0 -6 -2 -10q-4 -6 -22.5 -22.5t-38 -48.5t-34.5 -80t-15 -120q0 -129 50 -222t138 -151.5t205 -86t248 -27.5q104 0 220 19.5t227.5 54t211.5 85t177 111t122 130t45 145.5q0 86 -54 145t-137 95 t-182.5 52.5t-189.5 16.5q-66 0 -119 -5t-115 -9q-10 0 -44.5 -36t-82 -92.5t-98.5 -124t-94 -130t-71.5 -114.5t-28.5 -75q0 -4 1 -6t1 -6h4l2 2h4q6 0 9 -6t3 -11q0 -16 -16 -16q-10 0 -18.5 11.5t-8.5 23.5q0 33 21.5 81t56.5 104.5t78 114.5t85 111.5t78 97.5t56 68 q-6 4 -15.5 9.5t-9.5 19.5q0 20 36 45t114 78q10 6 50 52t88 110.5t94 135.5t67 128q16 47 18 64.5t15 17.5q10 0 12 -7t2 -18q0 -39 -23.5 -92t-57.5 -106.5t-69.5 -101.5t-60.5 -79q-4 -4 -5 -8t-5 -8q2 0 42 26.5t99.5 70.5t128 100.5t128 115t98 115.5t38.5 105 q0 25 -13 41t-34.5 25t-47 13.5t-50.5 4.5q-70 0 -147.5 -24t-142 -58.5t-107.5 -73.5t-43 -68q0 -10 6 -15t12 -9t12.5 -7.5t6.5 -9.5q0 -10 -11 -10q-18 0 -34.5 16.5t-16.5 38.5q0 37 44 81t112.5 82t152.5 62.5t162 24.5q33 0 64.5 -6t56.5 -20.5t40 -37t15 -55.5 q0 -59 -46 -125.5t-118.5 -136t-159.5 -137t-169 -128t-147.5 -111t-94.5 -82.5q4 0 5 -1t5 -1q23 2 49 4q23 2 50.5 3t58.5 1q98 0 209.5 -17.5t206 -57.5t157 -106.5t62.5 -164.5q0 -80 -46 -155t-125 -139.5t-182.5 -116.5t-220 -89t-239.5 -57.5t-238 -20.5 q-135 0 -254 32t-206 96.5t-137 159.5t-50 224z" />
<glyph unicode="C" horiz-adv-x="1361" d="M35 -16q0 117 53 262t140 294.5t201 289t235 241.5q-20 4 -38 5t-36 5q-76 12 -129 42t-87 66t-49.5 73.5t-15.5 68.5q0 20 10.5 51t28.5 31t20 -16q0 -12 -16 -30.5t-16 -53.5q0 -27 22.5 -63t67.5 -69.5t112.5 -57t155.5 -23.5q18 14 65.5 52t114 87t144.5 103.5 t155.5 99.5t148.5 73.5t124 28.5q29 0 45 -11t16 -38q0 -35 -57 -100.5t-161.5 -133t-249 -122t-318.5 -70.5q-29 -23 -88.5 -83t-131 -144t-146 -188.5t-137 -217t-101.5 -228.5t-39 -224q0 -129 76.5 -198t195.5 -69q115 0 240 55.5t246.5 139.5t231.5 181t195 181 t134 139.5t51 55.5q4 0 4 -6q0 -10 -52 -72.5t-140.5 -149.5t-202 -187.5t-236.5 -184.5t-243.5 -139.5t-225.5 -55.5q-68 0 -126 20.5t-101 59.5t-66.5 97.5t-23.5 132.5zM764 1104q170 23 302 77t222 114.5t138.5 116.5t48.5 83q0 10 -9.5 14t-19.5 4q-43 0 -111.5 -29.5 t-144.5 -74.5t-152.5 -97t-137 -97.5t-99.5 -77t-37 -33.5z" />
<glyph unicode="D" horiz-adv-x="1634" d="M31 236q0 43 6 86q0 4 3 13t15 9q6 0 11.5 -5t3.5 -13q0 -8 -10.5 -38t-10.5 -83q0 -94 44 -196.5t130 -178.5q4 8 4 10q63 154 161.5 324t209.5 340t222.5 329.5t201.5 293t148.5 228.5t64.5 138q-119 -16 -248 -103t-252 -214t-233.5 -281t-193.5 -306.5t-132 -288.5 t-49 -226q0 -8 2 -13q2 -18 14 -18q6 0 13.5 2t11.5 2q2 0 6 -4q0 -4 -2 -6q-16 -10 -33 -10q-25 0 -28 22q-6 25 -7 51q0 61 37 178t105.5 259.5t168 298t224.5 294t275.5 246t320.5 154.5q-2 10 -3 23.5t7 13.5q4 0 16 -35q16 2 37 4t49 2q86 0 161 -30.5t131.5 -91 t88 -151.5t31.5 -212q0 -135 -45 -289t-127 -303.5t-195.5 -287.5t-251 -242.5t-293 -167t-321.5 -62.5q-66 0 -113 9t-80.5 23.5t-56 29t-37.5 24.5q-2 -4 -12 -25.5t-20.5 -51t-18.5 -59.5t-8 -50q0 -8 1 -15.5t9 -7.5t12.5 3t8.5 3q6 0 6 -6t-9 -11t-18 -5q-10 0 -19 9 t-9 34q0 20 7 48t16 56.5t18.5 54t15.5 39.5q-16 12 -47 45t-60.5 86.5t-52 128t-22.5 173.5zM242 -186q57 -43 127.5 -62.5t142.5 -19.5q158 0 308.5 61.5t283.5 164.5t243.5 238.5t190.5 282t125 297t45 281.5q0 96 -23.5 177t-70.5 140.5t-115.5 93t-161.5 33.5 q-18 0 -40.5 -1t-43.5 -5q-6 -47 -64.5 -144.5t-147.5 -229.5t-199.5 -291.5t-221 -330.5t-209.5 -346t-169 -339z" />
<glyph unicode="E" horiz-adv-x="1589" d="M25 1106q0 8 6 11t10 3q6 0 12 -6q4 -4 23.5 -45t71 -89t141.5 -88t231 -40q82 0 170 21.5t174 55.5t167 76t151 85q-8 6 -22.5 18t-30 29.5t-26.5 41t-11 52.5q0 59 53 118.5t130 105.5t163 75t149 29q27 0 55.5 -9.5t28.5 -36.5t-27.5 -63.5t-71.5 -78.5t-97.5 -85 t-103.5 -81t-92 -67.5t-62 -43.5q20 -16 45.5 -31.5t52.5 -15.5t48 -13.5t21 -23.5q0 -12 -18 -13q-10 0 -35.5 9.5t-48.5 19.5q-59 0 -163.5 -46t-226.5 -124t-248 -180.5t-227.5 -217t-166 -233.5t-64.5 -227q0 -76 32 -128t86 -86t124 -49.5t145 -15.5q115 0 234 45.5 t234.5 117t222 159.5t193.5 173t149.5 157.5t91.5 113.5q2 2 3 5.5t5 3.5q6 0 6 -7q0 -4 -46 -64.5t-127 -148.5t-191.5 -189t-237.5 -188t-265 -145.5t-276 -58.5q-80 0 -154.5 17.5t-132 55t-91 96t-33.5 140.5t41 178t115.5 196.5t176 200t223.5 187.5t259 162t280 121 q-16 10 -29.5 17t-29.5 17q-74 -45 -158 -89t-171 -78.5t-177 -56t-178 -21.5q-106 0 -196.5 31.5t-154 75.5t-99 90t-35.5 73zM1118 1231q0 -41 25.5 -73.5t58.5 -55.5q25 14 68 45t94 69.5t102.5 81.5t94.5 84t69.5 75t26.5 54q0 18 -22.5 23.5t-43.5 5.5 q-55 0 -135 -27.5t-155.5 -72.5t-129 -99.5t-53.5 -109.5z" />
<glyph unicode="F" horiz-adv-x="1202" d="M2 563q0 176 61.5 348t178 309.5t288.5 222.5t394 85q80 0 155.5 -9.5t141 -19.5t117 -20.5t81.5 -12.5q37 61 80 117.5t88 102t87 72t75 26.5q29 0 45 -14.5t16 -20.5q0 -8 -8 -8q-4 0 -8 6q-14 14 -35 14q-35 0 -82 -37.5t-92 -89t-78.5 -101.5t-44.5 -75 q51 -12 113.5 -22.5t128 -17.5t129 -12t115.5 -5q47 0 123.5 9t153.5 32.5t138.5 61.5t73.5 93q0 14 8 15q6 0 6 -10q0 -49 -48 -89t-121.5 -69t-162.5 -44.5t-173 -15.5q-82 0 -167 7.5t-155 15.5t-118 15.5t-60 7.5q-23 -39 -57.5 -108t-74.5 -150.5t-81 -169t-75 -161 t-57.5 -124.5t-29.5 -64q8 0 21.5 1t27 4.5t24.5 8.5t13 13q2 4 12.5 25.5t26.5 21.5q8 0 15.5 -6t8.5 -16q0 -10 -10 -20.5t-20 -16.5q-12 -8 -22.5 -34t-19.5 -54.5t-18.5 -51t-19.5 -22.5q-6 0 -6 4l5 16q5 17 11 38.5t13.5 44l11.5 34.5q-14 -4 -37 -8t-45 -4 q-4 -6 -41 -81t-97.5 -183.5t-136 -232.5t-157.5 -230.5t-163 -177t-151 -70.5q-33 0 -51 23.5t-18 37.5q0 12 12 13q14 0 14 -11q0 -6 -1 -7t-1 -5q0 -14 14.5 -23.5t28.5 -9.5q47 0 107.5 48.5t127 128t134.5 181t130.5 207t114.5 208t87 182.5q-37 0 -97.5 -6.5 t-117 -23.5t-97 -49t-40.5 -85q0 -14 8 -17.5t14 -11.5q2 0 2 -8q-4 -4 -8 -4q-8 0 -23.5 11t-15.5 38q0 41 23.5 70.5t60.5 49t82 31t88 16.5t79 8t52 3q121 268 195.5 425t113.5 237q47 96 68 127q-55 10 -117.5 20t-126 19.5t-126 15.5t-118.5 6q-211 0 -377.5 -84 t-282.5 -217t-176.5 -299t-60.5 -332q0 -98 28 -192t74 -171t105.5 -132.5t122.5 -75.5q12 -4 24.5 -8t12.5 -17q0 -18 -23 -18q-27 0 -86 44t-120.5 124t-107.5 192.5t-46 247.5z" />
<glyph unicode="G" horiz-adv-x="1619" d="M10 1194q0 16 17 16q10 0 14 -4t22.5 -35.5t57.5 -77.5t99.5 -97.5t147.5 -95.5t202.5 -73.5t265.5 -29.5q2 0 3 1t3 1q90 184 212 322.5t252 230.5t256 138t224 46q31 0 61.5 -5t55 -17.5t40 -33t15.5 -50.5q0 -43 -39 -109t-108.5 -139.5t-168 -148.5t-217 -134 t-254 -96t-280.5 -37h-12h-15q-12 -25 -23.5 -78t-11.5 -106q0 -205 187 -205q66 0 132 26.5t129.5 69.5t123 95.5t110.5 101.5q45 41 56.5 52t19.5 11q16 0 17 -24q0 -33 -22.5 -96.5t-52.5 -132t-59.5 -130t-46.5 -90.5q27 2 62 13.5t71.5 33t72.5 55t67 82.5q4 6 12 7 q4 0 4 -7q-57 -104 -136 -153t-167 -68q-18 -33 -51 -92t-81 -129t-111.5 -143.5t-143.5 -133t-176 -97.5t-209 -38q-88 0 -142.5 47.5t-54.5 133.5q0 111 60.5 188.5t155 128.5t208 81t219 46t188.5 24.5t118 14.5q14 29 43.5 90.5t60.5 129t55.5 130.5t28.5 98 q-49 -45 -111.5 -105t-136.5 -115.5t-155.5 -93.5t-167.5 -38q-104 0 -155.5 64.5t-51.5 171.5q0 37 5 69.5t11 57.5q6 29 14 53q0 2 -1 2t-1 2q-4 0 -7 1t-7 1q-139 8 -254 41t-204 77t-154.5 95t-107.5 95t-62.5 76t-20.5 38zM463 -227q0 -78 47 -119t125 -41 q131 0 241.5 56.5t201.5 145.5t165 196.5t131 211.5q-59 -8 -149 -17t-191.5 -26.5t-203 -46.5t-183.5 -76t-133 -116.5t-51 -167.5zM877 799q229 0 435 79.5t380 225.5q29 25 70.5 63.5t79.5 84.5t64.5 92.5t26.5 82.5q0 25 -13 41.5t-33.5 25.5t-46 12t-50.5 3 q-115 0 -252 -60t-266 -160.5t-235.5 -228.5t-159.5 -261z" />
<glyph unicode="H" horiz-adv-x="1544" d="M12 940q0 23 23 23q16 4 22 -17q18 -57 57.5 -91t88.5 -51.5t105.5 -21.5t107.5 -4q123 6 235.5 37t219 75t207 100.5t198.5 113.5q10 6 33.5 42t56.5 87t72 108.5t80 107.5t80.5 83t72.5 35q23 0 38 -11.5t17 -35.5q0 -45 -45 -102.5t-106.5 -114t-125 -104.5t-97.5 -73 q-12 -8 -43 -58t-71 -122t-83 -155.5t-82 -158.5t-66.5 -131.5t-35.5 -74.5q109 -20 215 -40.5t215 -41.5q16 35 39.5 97.5t63.5 152.5t99.5 204.5t145.5 254.5q4 6 10 14t15 10q16 0 16 -14q-68 -119 -131 -242q-53 -106 -113.5 -234t-105.5 -251q43 -6 67 -6q16 0 25.5 1 t13.5 3q6 0 6 -8q0 -10 -17 -14.5t-40 -4.5q-16 0 -33.5 1t-29.5 3q-2 -6 -19.5 -51t-38 -111.5t-36 -146.5t-15.5 -156q0 -8 1 -15t1 -13q2 -47 16.5 -76t31 -48.5t30.5 -32.5t14 -28q0 -20 -20 -20q-14 0 -31.5 18.5t-33 49t-26 71.5t-12.5 84q0 68 7.5 128.5t20.5 116.5 t31.5 113.5t39.5 120.5q-111 20 -221.5 40t-221.5 34q-68 -129 -135 -257t-141 -230.5t-157 -168t-181 -71.5q-70 0 -122 23.5t-87 64.5t-53.5 97.5t-18.5 123.5q0 117 50.5 203t136.5 142.5t199.5 87t240.5 36.5q16 0 30.5 1t26.5 1q72 0 116 -6t73 -6q80 160 160.5 318.5 t171.5 314.5q-129 -82 -269 -150q-119 -57 -267.5 -107t-297.5 -58q-12 0 -24.5 -1.5t-24.5 -1.5q-47 0 -93 6.5t-87 20.5q-39 14 -73 39t-58.5 51.5t-39 48t-14.5 29.5zM88 -29q0 -139 66.5 -204.5t179.5 -65.5q63 0 120.5 34t110.5 89t102.5 128t92.5 149.5t81 152.5 t68 139q-41 4 -75.5 6t-67.5 2q-72 0 -149.5 -7t-152.5 -24.5t-143.5 -48t-119.5 -78.5t-82 -115t-31 -157zM1362 1161q29 20 85 64.5t112.5 96.5t98.5 104.5t42 89.5q0 20 -25 20q-31 -2 -79 -50t-95 -111.5t-86 -125t-53 -88.5z" />
<glyph unicode="I" horiz-adv-x="1028" d="M160 225q0 74 49 141.5t132 138t193.5 148.5t234.5 173.5t254 211t253 260.5q8 27 30.5 79.5t50 103.5t55.5 90t46 39q4 0 12.5 -5.5t8.5 -17.5q0 -8 -5.5 -23.5t-17.5 -35.5q-31 -45 -56.5 -84t-48 -78t-44 -84t-41.5 -104q-37 -106 -87.5 -259t-111.5 -320t-132 -333 t-152 -297t-169 -213t-182 -82q-53 0 -101 20.5t-69 69.5q-4 6 -9 24.5t-5 23.5q0 8 8 8q4 0 8 -10q8 -27 18.5 -47.5t28 -35t45 -21.5t70.5 -7q78 0 152.5 62.5t144.5 166t134.5 236.5t121.5 273.5t104 277.5t84 249.5t62 188.5t35 92q-123 -135 -252 -245.5t-250 -204 t-227.5 -170t-185.5 -145t-124 -132t-45 -129.5q0 -33 13.5 -59.5t48.5 -26.5q10 0 15 1t11 1q10 0 16.5 -6t4.5 -16q0 -12 -11.5 -16.5t-21.5 -4.5q-35 0 -65.5 35t-30.5 98z" />
<glyph unicode="J" horiz-adv-x="1218" d="M86 -285q0 70 47 139.5t126 135t179.5 125t206 107.5t208.5 83t185 53q43 88 87 191.5t85 210t76 208t62.5 183.5t46 137t22.5 70q-203 -174 -370.5 -299t-299 -216t-228.5 -156.5t-160.5 -123t-94.5 -115t-31 -133.5q0 -41 18.5 -74.5t53.5 -62.5q10 -8 19.5 -14 t9.5 -19q0 -10 -8.5 -15t-16.5 -5q-14 0 -31.5 14.5t-33 39t-25.5 57t-10 71.5q0 100 45 175t126 143.5t194.5 139.5t251 163t294 212t324.5 287q8 8 18.5 25.5t20.5 37t22.5 39t26.5 32.5q6 6 14 6q20 0 21 -19q0 -6 -5.5 -17t-9.5 -15q-59 -84 -99 -183.5t-87 -232.5 t-113.5 -312.5t-179.5 -422.5q29 4 63.5 14t67.5 21.5t56.5 22.5t29.5 17q14 0 8 -6q-8 -12 -33.5 -25.5t-59.5 -25.5t-71.5 -22.5t-68.5 -18.5q-61 -141 -148.5 -280.5t-188.5 -251t-209.5 -180t-213.5 -68.5q-37 0 -76 7t-70.5 24.5t-52 47t-20.5 74.5zM123 -285 q0 -37 17.5 -59.5t45 -35.5t59 -17t60.5 -4q88 0 185.5 59t194.5 159.5t186 233.5t159 283q-61 -14 -152.5 -46t-192.5 -77t-201.5 -102.5t-180.5 -121t-130 -133t-50 -139.5z" />
<glyph unicode="K" horiz-adv-x="1460" d="M-6 1030q0 12 12 12q2 0 8 -6q33 -35 70 -65.5t86 -53t114.5 -35t157.5 -12.5q98 0 195.5 26t193 67t183.5 94t168 110q29 49 75 117t95 129.5t95 104.5t79 43q10 0 17 -7.5t7 -17.5q0 -14 -20.5 -50t-62.5 -86t-105.5 -111.5t-149.5 -127.5q-16 -23 -55 -90t-88 -156.5 t-101.5 -187.5t-97.5 -183t-75.5 -145.5t-36.5 -72.5q18 -8 50 -14.5t66 -6.5q117 0 225.5 80t210 201t194.5 260t179 260t166 200.5t154 79.5q47 0 84 -38q6 -8 12 -20.5t6 -14.5l-6 -13q-10 33 -35.5 51.5t-56.5 18.5q-68 0 -144.5 -81t-161.5 -201.5t-179.5 -262 t-196.5 -262.5t-213 -201.5t-227 -80.5q-47 0 -84 10t-53 14q-16 -25 -17 -33q0 -8 30 -72.5t82 -154.5t123.5 -193.5t156.5 -191.5t178.5 -146.5t187.5 -58.5q80 0 152.5 40t129 97.5t90 121t33.5 110.5q0 16 -6 35q-2 4 -2 10q0 14 12 14t15.5 -12t3.5 -25 q0 -43 -33 -114.5t-91 -140t-138 -117.5t-176 -49q-82 0 -163 40.5t-156 107.5t-142.5 153t-125.5 176t-105 177t-80 157q-31 -51 -76 -125t-103.5 -139.5t-128 -112.5t-147.5 -47q-51 0 -82 17t-46 47t-20.5 68t-5.5 81q2 4 3 8t5 4q6 0 7 -12q0 -31 3 -65t15 -61.5t39 -45 t76 -17.5q57 0 111.5 32t104.5 79t92 102t72.5 103.5t48 82t17.5 35.5t-6 17.5t-13 33t-15 31.5l-7 15q-10 8 -23.5 20t-25.5 33.5t-20.5 54.5t-8.5 82q0 4 6.5 11t10.5 7q8 0 12 -8q35 -53 49.5 -92t23.5 -66.5t19.5 -44t36.5 -26.5l434 801q-39 -27 -112.5 -75t-170 -94 t-211 -81t-239.5 -35q-111 0 -192.5 24.5t-137 55.5t-82 59.5t-26.5 36.5zM592 528q4 -74 49 -125q-10 33 -22.5 64.5t-26.5 60.5zM709 324q2 -4 3 -7.5t3 -7.5l4 8q0 2 -10 7zM1241 1204q16 10 59 49t91.5 89.5t89.5 103.5t49 92q-20 0 -62.5 -43t-87.5 -100.5t-84 -112.5 t-55 -78z" />
<glyph unicode="L" horiz-adv-x="1437" d="M29 1051q-10 14 4 24q8 4 10 4q10 0 14 -6t9 -12q29 -61 79 -103.5t109 -67t125.5 -35.5t130.5 -11q135 0 274.5 37t274.5 97t260 138t231 160q12 10 23 27q27 41 52.5 78.5t51.5 78.5q16 23 34 41.5t34 38.5q14 14 29 23q4 4 14 4q12 0 16 -4q14 -12 13 -33 q-4 -25 -15 -41q-10 -14 -20 -27.5t-23 -25.5q-29 -35 -59.5 -64t-65.5 -57q-8 -6 -13 -13.5t-11 -15.5q-117 -186 -219.5 -376.5t-198.5 -387.5q-53 -106 -105.5 -211.5t-105.5 -210.5q-29 -55 -58.5 -108t-62.5 -107q-4 -4 -4 -6t-4 -6q8 -4 10 -4q84 -23 164 -52.5 t160 -64.5q63 -27 124.5 -52.5t127.5 -47.5q92 -31 185 -54.5t192 -23.5q35 0 64.5 4t62.5 23q6 4 11 8t11 8q20 20 12 51q0 4 -2 9.5t-2 9.5q0 2 1 4t1 4q4 -2 6 -2t5 -2q10 -16 10 -39t-10 -39q-12 -16 -37 -33q-23 -14 -49.5 -22.5t-55.5 -12.5q-14 -2 -28.5 -2h-28.5 q-123 0 -253 39t-243 84q-111 47 -221.5 90t-226.5 80q-8 0 -13 2q-4 -8 -10 -14q-23 -29 -43 -58.5t-43 -58.5q-4 -8 -11 -14t-15 -12q-4 -2 -8.5 -4.5t-8.5 -2.5t-6 2q-8 4 -9 11.5t-1 13.5q0 4 2 5t4 5q2 -2 4 -3t4 -5q2 -2 1 -4t1 -6q8 4 10 6q8 10 15.5 17.5t15.5 17.5 q16 27 33.5 51.5t36.5 50.5l4 8q-66 14 -128.5 25.5t-127.5 11.5q-53 0 -104.5 -8t-100.5 -27q-16 -8 -33.5 -16t-31.5 -23q-16 -12 -25 -26q-12 -16 -6 -31.5t26 -19.5q6 0 9 -2q18 -8 10 -23q-4 -10 -14 -10q-6 0 -9 2q-12 8 -23 16t-22 21q-12 18 -6 39q4 10 9 19l10 18 q25 31 63.5 51t83.5 32.5t90 17.5t84 5q96 0 203 -22q16 -4 31.5 -7.5t31.5 -7.5q4 4 6.5 8t4.5 9q45 76 85 153.5t76 155.5q55 115 109.5 227.5t110.5 226.5q68 141 142.5 277.5t156.5 271.5q4 4 5 8.5t5 8.5q-6 -2 -9.5 -4t-7.5 -4q-104 -76 -225 -148t-251 -128t-265 -91 t-268 -35q-117 0 -223.5 37t-184.5 125q-12 16 -25.5 30.5t-27.5 30.5q-8 8 -10 13zM1675 1386q51 45 86 95q6 8 10.5 15t8.5 17q2 2 2 9q-33 -29 -58.5 -64t-48.5 -72z" />
<glyph unicode="M" horiz-adv-x="1726" d="M-61 -178q0 10 8 18t18 8q14 0 18.5 -8t9.5 -19t16 -19.5t40 -8.5q90 0 194.5 66.5t213 174t217 247t207.5 282.5q231 338 467 770h4l2 -2q4 -6 4 -16v-4q-2 -20 -28.5 -74.5t-65.5 -132.5t-84 -173t-83 -199.5t-63.5 -212t-25.5 -208.5q0 -57 13 -111.5t54 -70.5 q-2 10 -4 16.5t-2 16.5q0 29 46 90t115.5 138t151.5 162t155 162t125 136t60 86q39 115 88.5 222.5t97.5 190.5t88 133t58 50q14 0 18.5 -11.5t4.5 -23.5q0 -49 -32 -123t-79 -153.5t-101.5 -155.5t-99.5 -129q-47 -119 -78.5 -249t-50 -259t-26.5 -250t-8 -217q0 -29 1 -76 t5 -102t14 -112.5t28.5 -103.5t48.5 -75t70 -29q6 -4 7 -8q0 -10 -21 -10q-63 0 -100 59.5t-56.5 144.5t-24.5 176t-5 155q0 184 19.5 341.5t42 273.5t43 184.5t22.5 76.5q-2 -2 -47 -50t-113 -120t-144.5 -157t-143 -161.5t-110.5 -134t-44 -75.5q0 -23 18 -26t25 -15 q-4 -10 -14.5 -13.5t-22.5 -3.5q-41 0 -66.5 20.5t-40 54.5t-19.5 75t-5 82q0 82 14 159.5t35.5 150.5t46.5 135.5t45 113.5q-45 -80 -113.5 -195.5t-153.5 -241.5t-183.5 -251t-203 -224.5t-209 -162t-204.5 -62.5q-29 0 -49.5 8.5t-32.5 19.5t-17 22.5t-5 17.5zM1780 999 q27 35 71.5 99.5t89 136.5t76 141.5t31.5 112.5v4q-20 -16 -60 -76.5t-82 -136.5t-78 -152.5t-48 -128.5z" />
<glyph unicode="N" horiz-adv-x="1808" d="M-16 -352q0 29 34 28q10 0 16.5 -1t22.5 -1q96 0 204 53.5t218.5 146.5t219 218t207 269.5t182 300t145 309t96.5 297t35 264.5q0 4 -1 6t-1 6q0 8 5 15.5t9 15.5l2 2h4q10 0 22.5 -14.5t12.5 -34.5q-14 -182 -24 -354q-6 -74 -10.5 -152t-8.5 -152.5t-6 -144.5t-2 -125 q0 -39 2 -110.5t7 -156.5t16.5 -172t31 -159t46 -118t65.5 -46q20 0 49 23q-23 10 -28 36.5t-5 49.5q0 29 19.5 112.5t54.5 199.5t84 255t107.5 280.5t125 272.5t137 233.5t144.5 164t145 61.5q18 0 35 -8.5t29 -18.5t19.5 -19.5t7.5 -13.5q0 -10 -11 -10q-8 0 -8 8 q-4 18 -23.5 32.5t-45.5 14.5q-63 0 -131 -59t-135.5 -158.5t-132 -227.5t-124 -266t-108.5 -276.5t-85 -256t-56.5 -206t-20.5 -124.5q0 -27 4 -36.5t10 -17.5q18 6 22.5 8.5t8.5 2.5q6 0 6 -9q0 -2 -8 -13t-21.5 -23.5t-31 -21.5t-37.5 -9q-49 0 -84 51t-57.5 132 t-36 181.5t-19.5 196.5t-8 178t-2 127q0 51 2 115.5t5 135.5t7 143.5t9 135.5q-37 -121 -91.5 -261t-127 -285.5t-164 -290t-200 -274.5t-234.5 -238.5t-269 -179.5q-31 -16 -69.5 -28.5t-72.5 -21t-59.5 -13.5t-31.5 -5q-16 0 -29.5 6t-13.5 25z" />
<glyph unicode="O" horiz-adv-x="1429" d="M188 -115q0 94 26 197.5t67 205t93 197t105 172.5l21 68q22 68 68 169t115 219t162 218.5t213 168t265 67.5q129 0 210 -80t83 -246q-2 -158 -57.5 -340t-148.5 -362.5t-215 -346t-256 -293.5t-272.5 -204t-265.5 -76q-111 0 -162 77t-51 189zM213 -109q0 -51 10 -95 t31.5 -77.5t57.5 -53t87 -19.5q121 0 256.5 74.5t267.5 199.5t252.5 289t213 340t146.5 353t54 331q0 150 -73.5 224.5t-192.5 74.5q-94 0 -183 -39t-169 -102.5t-150.5 -145.5t-126 -169t-95.5 -172t-60 -154q4 2 26.5 30.5t56 71.5t73.5 92t81 91t77 70t60 28 q23 0 38.5 -18.5t4.5 -47.5q-2 -6 -10 -6q-12 0 -12 16l1 7q1 6 0 13t-5 13t-15 6q-31 0 -87 -55t-116.5 -128t-112.5 -143.5t-75 -103.5q-6 -10 -12 -34.5t-11 -54.5t-7 -59.5t-2 -48.5q0 -74 26.5 -130t99.5 -56q23 0 47.5 6t26.5 6q6 0 7 -7t-9 -11q-10 -2 -30.5 -7 t-43.5 -5q-43 0 -71.5 17t-46 47t-24.5 68t-7 81q0 29 2 54t6 54q-2 0 -2 1t-2 1q-45 -76 -91 -164t-83 -181t-60.5 -188t-23.5 -184z" />
<glyph unicode="P" horiz-adv-x="1732" d="M-25 1143q0 23 17 22q6 0 12 -6q18 -18 47 -63t77 -90t122 -80t184 -35q156 0 327 59.5t337 151.5t319.5 204.5t274.5 219.5q12 10 44.5 51t70.5 87t74 83t56 37q16 0 17 -17q0 -6 -15.5 -25.5t-19.5 -25.5q-104 -111 -202.5 -240.5t-183.5 -260t-155.5 -251t-122 -215 t-79 -151.5t-27.5 -59q0 -12 8 -31q37 55 95.5 150.5t131 208t156.5 227t173 209t180.5 154t177.5 59.5q59 0 89.5 -41t30.5 -105q0 -63 -32.5 -160.5t-92 -207t-140.5 -219t-177 -198.5t-203.5 -144.5t-218.5 -55.5q-41 0 -69.5 8t-48 19.5t-34 25t-24.5 21.5 q-51 -74 -110.5 -165t-125 -185.5t-135 -183.5t-139.5 -158.5t-139.5 -111.5t-132.5 -42q-29 0 -46.5 14.5t-26.5 36t-11 46t-2 46.5q0 4 1 11.5t7 7.5q4 0 8 -4q6 -4 17.5 -15.5t39.5 -11.5q47 0 110.5 31.5t129.5 79t126 101.5t101 97q10 10 35 48t56.5 92.5t67.5 119 t66.5 125t54 110.5t30.5 79q4 12 10 12l12 -4q113 211 231.5 412.5t251.5 400.5q-117 -92 -260 -195.5t-301.5 -191.5t-323.5 -145.5t-325 -57.5q-119 0 -204 40t-140 90t-82 96t-27 59zM299 -260q0 -35 12.5 -70t55.5 -35q49 0 115.5 40t129 96.5t114 117t71.5 103.5 q-84 -76 -164 -135q-68 -51 -142.5 -93.5t-130.5 -42.5q-23 0 -43 9q-8 4 -14 10h-4zM999 266q53 80 81 123t41.5 63.5t15.5 24.5t2 6q0 4 -3 11.5t-8 17.5q-27 -49 -51 -93t-41.5 -78t-28 -53.5t-8.5 -21.5zM1167 483q16 -25 53 -46t97 -21q104 0 206.5 53t195.5 138 t174 191.5t140.5 213t93.5 203t34 161.5q0 47 -21.5 79t-71.5 32q-72 0 -156.5 -57.5t-173.5 -148.5t-177 -204.5t-164 -225.5t-136.5 -209.5t-93.5 -158.5z" />
<glyph unicode="Q" horiz-adv-x="1269" d="M115 39q0 66 22.5 143.5t61.5 145t93 112.5t116 45q45 0 80.5 -37.5t35.5 -134.5q0 -66 -21.5 -141.5t-50 -150t-57 -147.5t-43.5 -132q10 -2 21.5 -3t21.5 -1q104 0 218 63.5t223.5 172t209 250t174 297t118.5 316t44 304.5q0 72 -14 138.5t-45 116.5t-80 80.5 t-121 30.5q-106 0 -227 -72.5t-238.5 -195.5t-224 -285.5t-186.5 -341.5q-12 -29 -16.5 -45t-6.5 -23t-4 -9.5t-8 -2.5q-10 0 -10 11q0 4 17.5 49t51 114.5t82.5 157.5t110.5 179.5t135.5 177.5t158 154.5t177 109.5t193 41q76 0 128.5 -33t86 -87t49 -124t15.5 -145 q0 -150 -45 -312.5t-122 -321.5t-179.5 -302.5t-214 -251t-228 -172t-223.5 -64.5q-39 0 -47 2q-2 -6 -4 -23.5t-2 -39.5q0 -47 21.5 -72.5t74.5 -25.5q23 0 43.5 7t36.5 17q18 10 37 25q2 0 3 -1t3 -1l2 -4q0 -4 -11 -15.5t-29.5 -23t-43 -19.5t-51.5 -8q-82 0 -106 57 q-13 33 -13 75q0 29 6 61q-55 20 -93 54t-61.5 77t-33.5 90t-10 94zM137 49q0 -43 12.5 -90t36 -90t57 -76t76.5 -45q55 143 89 235.5t53.5 155t27 103.5t7.5 82q0 53 -19.5 96t-73.5 43q-55 0 -103 -45t-84 -109.5t-57.5 -135.5t-21.5 -124z" />
<glyph unicode="R" horiz-adv-x="1968" d="M20 1141q0 16 17 16q10 0 16 -8l11 -25q12 -26 35.5 -63t62.5 -80t96 -80t135 -61.5t178 -24.5q104 0 216 34t225.5 89t223.5 128t207 152.5t179 159.5t141 150q12 16 25.5 39.5t26 46t22.5 38t16 15.5h7q4 -4 4 -10q0 -2 -29 -60.5t-77 -151.5t-108.5 -212t-125 -243 t-125 -242.5t-108.5 -213t-76.5 -152.5t-28.5 -63q0 -4 8 -12q92 117 192.5 257.5t203 282.5t202.5 274t189.5 235.5t163 165t122.5 61.5q20 0 33.5 -12t21 -30.5t9.5 -41t2 -43.5q0 -117 -40 -252t-109.5 -270t-166 -260t-210 -221.5t-239.5 -153.5t-255 -57q-14 0 -29.5 2 t-28.5 4q-14 2 -26 6q0 -4 2 -6q70 -115 135.5 -224.5t133 -194.5t140 -137t158.5 -52q68 0 134.5 31.5t107.5 101.5q16 25 23.5 43t11.5 18q10 0 11 -6q0 -4 -15 -38t-49.5 -73t-91 -71.5t-142.5 -32.5q-94 0 -173 60.5t-149.5 155.5t-138 211.5t-139.5 229.5 q-74 -92 -150.5 -203.5t-159.5 -209t-175.5 -164t-196.5 -66.5q-27 0 -48.5 13.5t-38 29t-25.5 28.5t-9 15q0 8 10 8q16 0 20.5 -6t7.5 -12t11 -12t35 -6q66 0 142.5 46t149.5 106.5t131 121.5t89 92q4 4 18.5 25.5t33 51.5t39 63.5t37.5 62.5t28.5 49.5t11.5 22.5 q0 8 -8 15t-8 15q0 12 12 13q4 0 6 -4.5t10 -18.5q20 37 70.5 131t113 216t129 255t124 247t96.5 190.5t43 84.5q-2 0 -2 1.5t-2 1.5q-27 -31 -89.5 -93.5t-152.5 -138.5t-200.5 -155.5t-231.5 -145.5t-247 -107.5t-245 -41.5q-135 0 -236.5 48t-171 109.5t-104.5 117.5 t-35 75zM444 -332q0 -4 21.5 -11t36.5 -7q39 0 83 19.5t88 49t86 65.5t75.5 69.5t56.5 61.5t27 40q-80 -80 -160 -145q-33 -27 -71 -52.5t-76 -46t-73.5 -33t-68.5 -12.5h-14q-4 2 -11 2zM1139 238q10 12 18 22q18 18 19 25q0 6 -7 8q-6 -10 -15 -27.5t-15 -27.5zM1204 291 q16 -6 38 -15.5t63 -9.5q121 0 241.5 56.5t232 149.5t208 216t167 256t111.5 267.5t41 250.5q0 14 -1 31.5t-6 33t-13.5 26t-22.5 10.5q-47 0 -119.5 -63.5t-162 -167t-189.5 -237.5t-202.5 -275.5t-201 -279.5t-184.5 -249z" />
<glyph unicode="S" horiz-adv-x="1701" d="M61 -123q0 92 45.5 170t106.5 143q31 31 50.5 47.5t28.5 25.5t12 15.5t3 14.5q4 154 52.5 284t128 224t187 147t232.5 53q98 0 172 -36.5t109 -83.5q4 2 66.5 42t163 109.5t229.5 165.5t266 209q6 4 24.5 31.5t41 58.5t45 55.5t38.5 24.5q14 0 15 -14q0 -10 -15.5 -31 t-36 -46.5t-41 -52t-32.5 -51.5q-18 -41 -40 -95t-49.5 -130t-62.5 -178t-78 -240q-74 -233 -139 -409t-126.5 -302t-122 -209t-128 -132t-145.5 -68.5t-170 -19.5q-106 0 -205.5 38.5t-178.5 119.5t-131 205t-69 294q-4 -2 -41 -35t-80 -85t-77.5 -120.5t-34.5 -144.5 q0 -41 12 -74t30.5 -56.5t42 -36.5t46.5 -13q10 0 31 4q8 4 16 6q8 0 8 -10t-15.5 -12.5t-25.5 -2.5q-33 0 -62.5 17.5t-50 46.5t-33 64.5t-12.5 72.5zM332 268q0 -100 33.5 -213.5t102.5 -209t173 -159t248 -63.5q111 0 196.5 36t153.5 100.5t121 152.5t98 193.5t86 224.5 t86 241q55 182 96 306t72 213.5t53.5 153t42.5 122.5q-166 -141 -342 -263t-356 -243q4 -12 9 -32.5t5 -55.5q0 -68 -22.5 -126t-52 -101t-56 -67.5t-37.5 -24.5h-10q4 10 28.5 30.5t53.5 58.5t52.5 93t23.5 131q0 16 -2 42t-10 40l-37 -22q-37 -23 -96.5 -61t-136.5 -86 t-155.5 -100.5t-154.5 -102.5t-135.5 -93t-95 -73.5t-35.5 -41.5zM332 301q135 106 257 190t228.5 152t195.5 123t156 102q-14 29 -45.5 49.5t-68.5 35t-76 21.5t-70 7q-117 0 -218 -47t-178 -135t-124 -214t-57 -284z" />
<glyph unicode="T" horiz-adv-x="1230" d="M-285 1470q0 70 66.5 117t162 77t199 43t176.5 13q117 0 251.5 -19.5t268.5 -48t258 -61t220 -61.5t153 -48l58 -20q41 23 64.5 38.5t35.5 25.5t19.5 15t17.5 5q12 0 21.5 -5t9.5 -17q0 -4 -2 -7.5t-12.5 -10.5t-33 -21.5t-65.5 -38.5q6 -2 54.5 -18.5t124 -39t169.5 -48 t190.5 -48t187.5 -37t161 -14.5q37 0 83 7t86 22.5t66.5 42t26.5 63.5q0 41 -5 63.5t15 22.5q14 0 20.5 -19.5t6.5 -33.5q0 -55 -31 -92t-79 -60.5t-105 -34t-113 -10.5q-70 0 -155.5 12.5t-175 32t-177.5 43t-162.5 45t-131 39t-83.5 23.5q-66 -102 -131 -236.5 t-128.5 -283t-126 -303t-124 -301t-123 -276.5t-121 -226t-117.5 -152.5t-118 -56.5q-18 0 -32.5 9t-25.5 20.5t-16.5 21.5t-5.5 12q0 8 11 9q2 0 10 -4q6 -8 19.5 -24.5t35.5 -16.5q66 0 134.5 86t141 228t150.5 328.5t164 388t181.5 404.5t199.5 379q-6 6 -10 6 q-139 -55 -310 -100q-147 -37 -343.5 -68.5t-430.5 -31.5q-55 0 -131 4t-156.5 14t-159.5 28.5t-140.5 46t-99.5 66.5t-38 92zM-250 1468q0 -45 34 -77.5t88 -57t121.5 -40t138.5 -24.5t135.5 -13.5t111.5 -4.5q305 0 583.5 52.5t505.5 134.5q-10 4 -66 23.5t-145.5 47 t-204 57t-238.5 55.5t-252 43t-245 17q-102 0 -203.5 -15t-182.5 -43t-131 -66.5t-50 -88.5z" />
<glyph unicode="U" horiz-adv-x="2277" d="M-289 999q0 10 6.5 15.5t12.5 5.5q10 0 16 -7t8 -18q12 -39 46 -92t95.5 -102t151.5 -83t213 -34q143 0 297 51t300.5 131t278.5 176.5t231 188.5t157.5 168t58.5 112q0 4 -2 7.5t-2 7.5q2 2 4 2q4 0 25.5 -17.5t21.5 -54.5q0 -39 -42 -116.5t-110.5 -183t-155.5 -232.5 t-178 -262.5t-178 -272.5t-156 -265t-111 -237.5t-42 -191.5q0 -29 10.5 -52.5t39.5 -23.5q51 0 132 65.5t175 168t192.5 226.5t184.5 239.5t152.5 210t94.5 135.5q35 51 99.5 145t142.5 205.5t159 227.5t150.5 211t117.5 155.5t58 60.5q8 0 9 -8q-2 -12 -44 -83 t-109 -184.5t-150.5 -260t-169.5 -308t-169 -330.5t-147.5 -328t-104.5 -298t-40 -242q0 -29 5 -55.5t34 -26.5q37 0 109.5 57.5t160.5 144.5t183.5 192.5t177 201t142 168t77.5 94.5q27 37 28 43q4 4 4 5q2 0 11 -9q2 -2 -29 -42t-83 -105.5t-122 -147t-145.5 -169 t-153.5 -169t-146.5 -146t-125 -104.5t-88.5 -40q-39 0 -52.5 31.5t-13.5 68.5q0 111 39 254t103.5 303t146.5 328t167 326.5t167 299t146.5 246t104.5 168.5l40 62q-76 -100 -172.5 -239.5t-205 -299.5t-225 -331t-234.5 -334.5t-231.5 -310t-215 -257t-188.5 -175.5 t-150 -65q-37 0 -54.5 31t-17.5 70q0 84 42 197.5t111.5 241.5t157.5 265.5t179 272.5t179.5 261t158 230.5t111.5 181t42 113.5q0 45 -21 49q-18 -63 -88.5 -150t-176 -181.5t-238 -187.5t-273.5 -165.5t-284.5 -118t-270.5 -45.5q-78 0 -152.5 15.5t-144.5 50.5 q-53 27 -99 70t-81 86t-54.5 77.5t-19.5 40.5z" />
<glyph unicode="V" horiz-adv-x="1998" d="M-254 979q0 23 23 22q12 0 18 -10q2 -2 31.5 -46t94 -95t168 -93t255.5 -42q133 0 261 42t247 110.5t222 156.5t187 179t142.5 177t87.5 152q4 6 4 20q0 16 12 21.5t29 5.5q39 0 58.5 -29.5t19.5 -70.5q0 -45 -27 -127t-71 -188.5t-99 -232.5t-113.5 -259t-115 -268.5 t-100.5 -261.5t-70.5 -235.5t-26.5 -191.5q0 -18 2 -36.5t8 -35t17.5 -26.5t29.5 -10q41 0 110 58.5t154 152.5t181 216t190 249t180.5 248.5t152 218t105 156t39.5 61.5q14 63 42 135t63 143.5t74 136t75.5 114.5t66.5 80t48 30q25 0 25 -27q0 -39 -28 -95.5t-68 -120 t-88 -131t-88 -131t-67.5 -118.5t-27.5 -94q0 -27 9.5 -55.5t35.5 -28.5q18 0 36.5 13t33.5 24q12 10 19 16t14 6q8 0 8 -8q0 -2 -11.5 -15.5t-28 -26.5t-37 -24.5t-38.5 -11.5q-23 0 -37 12.5t-22.5 32t-12.5 43t-4 45.5q-211 -301 -382 -547.5t-306 -421.5t-237.5 -270.5 t-176.5 -95.5q-35 0 -63.5 29.5t-28.5 109.5q0 86 27 198t71 239t100 262t114.5 268t114 258t99.5 230.5t70.5 186.5t26.5 124q0 35 -12.5 56.5t-47.5 21.5q-8 0 -14 -3q-14 -57 -66.5 -144t-133 -183t-187 -192.5t-231.5 -174.5t-266.5 -126t-290.5 -48q-133 0 -241 42 t-182.5 94.5t-114.5 99.5t-40 55zM2224 1067q4 2 36 47t77 113.5t93 151.5t81 163q4 6 4 13.5t2 13.5q-2 2 -4 2q-37 -33 -83 -103.5t-89 -148.5t-76 -147.5t-41 -104.5z" />
<glyph unicode="W" horiz-adv-x="2088" d="M-555 971q0 20 18 20q6 0 13 -6q6 -4 36.5 -44t92 -87t157 -85t230.5 -38q139 0 268 46t243.5 119t210 161t166 172t114.5 151.5t55 100.5q6 18 5 27.5t13 13.5q8 4 25 4q37 0 54 -26.5t17 -63.5q0 -55 -39 -162t-97 -240t-125.5 -281.5t-126 -288.5t-97.5 -263t-39 -203 q0 -33 11.5 -57.5t43.5 -24.5q33 0 79 34t96.5 87t101.5 119.5t95 129t79 116t53 81.5q98 160 184 319t151.5 284.5t109 204.5t51.5 79q14 0 14 -12q-150 -289 -264 -582q-49 -125 -97.5 -262t-86 -276.5t-60 -276.5t-22.5 -260q0 -18 2 -40.5t8 -42t18.5 -33t30.5 -13.5 q57 0 133 66.5t162 176t177 250t177 288t164 289.5t135.5 257t91 187.5t33.5 80.5q-2 10 -2 21q-2 10 -3 21.5t-1 21.5q0 43 13.5 102.5t33 113.5t45 92t49.5 38q16 0 21.5 -13.5t5.5 -29.5q0 -25 -15.5 -73t-36 -99t-41 -97t-30.5 -71q-4 -12 -4 -16q0 -8 5 -23.5t18.5 -29 t36 -23.5t55.5 -10q45 0 80.5 19t68.5 48q6 6 10 6q8 0 9 -6q0 -4 -14.5 -18.5t-39 -30.5t-57.5 -29.5t-68 -13.5q-33 0 -56 9t-38.5 21.5t-23 24t-9.5 13.5q-16 -35 -59 -123t-103.5 -207t-136 -260.5t-157.5 -282.5t-168 -274t-169 -234.5t-158 -163t-136 -61.5 q-31 0 -50.5 15.5t-29.5 39t-14 54t-4 61.5q0 109 20.5 231.5t50 245.5t64.5 235.5t65.5 199.5t50.5 139l21 53q-8 -12 -49 -85t-102.5 -174.5t-137.5 -217t-152.5 -213t-148 -162t-127.5 -64.5q-45 0 -65.5 33t-20.5 80q0 80 39 203t97.5 264t127 290.5t127 283t97.5 237.5 t39 158q0 31 -10.5 52t-41.5 21q-4 0 -9 -1t-9 -1q0 -31 -40 -102.5t-110.5 -159.5t-170 -184t-219.5 -174t-258 -129t-288 -51q-127 0 -226 39.5t-166.5 89t-103.5 91.5t-36 44zM2335 1217q6 12 24.5 54t37 92t33.5 97t15 70v12t-2 6q-18 -18 -38.5 -57t-37 -86t-25.5 -97 q-7 -41 -7 -76v-15z" />
<glyph unicode="X" horiz-adv-x="1746" d="M-354 1008q0 10 6 14t12 4q2 0 10 -4q8 -8 43 -50t98.5 -88t161 -83t232.5 -37q145 0 280.5 48t254 124t218 168t174 179t119.5 158.5t58 106.5q6 16 5 25.5t11 15.5t29 6q37 0 55.5 -28.5t18.5 -67.5q0 -49 -31 -141t-78 -204t-101.5 -231.5t-101.5 -223t-79.5 -178.5 t-32.5 -97q31 31 115.5 122t201.5 212t252 253t269 243.5t255 183t205 71.5q51 0 85 -28.5t34 -81.5q0 -27 -11.5 -65t-24.5 -72.5t-25.5 -59t-14.5 -24.5q-4 -4 -6 -4q-6 0 -6 10q20 37 37 76q12 33 23 68.5t11 64.5q0 47 -27.5 70.5t-70.5 23.5q-78 0 -190.5 -67.5 t-240.5 -173t-262 -235.5t-255 -255t-219.5 -230.5t-155.5 -163.5q-10 -10 -28.5 -66t-37 -130t-31.5 -153t-13 -136q0 -33 4 -64.5t16 -56t32.5 -39t53.5 -14.5q57 0 133 45t160 115.5t169 158t159.5 170t134 151.5t90.5 106q6 6 8 6t3 -1t3 -1l-27 -34q-26 -34 -72 -89.5 t-106.5 -125t-129 -142t-141.5 -142.5t-142.5 -125t-133 -88t-112.5 -33q-39 0 -66.5 17.5t-44 45t-24.5 64.5t-8 76q0 55 9 112.5t21.5 112t28 104.5t27.5 91q-90 -88 -208 -189.5t-249 -188.5t-266.5 -145.5t-261.5 -58.5q-16 0 -37 3t-21 20q0 10 6 11t13 1q10 -4 22 -9 t35 -5q80 0 182.5 42t211 106.5t214 141t189.5 147.5t139 126t61 74q78 205 157 383t144.5 322.5t106.5 253t41 171.5q0 29 -11.5 50.5t-41.5 21.5q-12 0 -19 -2q-2 -31 -43 -105.5t-115.5 -167t-178 -191.5t-229.5 -181t-269.5 -135.5t-298.5 -53.5q-135 0 -237.5 41 t-172.5 91.5t-104.5 92.5t-34.5 44z" />
<glyph unicode="Y" horiz-adv-x="1968" d="M-84 1174q0 10 7 18t18 8q23 0 28 -24q12 -68 79 -120t159 -87t193.5 -53.5t183.5 -18.5q166 0 310 51t266 129t217.5 171t162 177t101 147.5t34.5 82.5q0 4 1.5 9t11.5 5q27 0 37 -25.5t10 -52.5q0 -63 -38 -155.5t-95.5 -197.5t-125 -218t-125 -220.5t-95 -202.5 t-37.5 -165q0 -31 13 -50.5t44 -19.5q55 0 147.5 56.5t201 154t221 227.5t204.5 277q78 123 124 196t71.5 112.5t37 52t17.5 12.5t8 -6l4 -12q-10 -51 -74 -185q-27 -57 -66.5 -138t-99 -191.5t-140.5 -252t-185 -321.5q10 0 45 7t82 22.5t96 39t86 56.5q4 4 10 4h5l2 -4 q0 -6 -3.5 -7t-7.5 -5q-63 -59 -156.5 -91t-176.5 -55q-31 -47 -82.5 -126t-119 -169t-148.5 -181t-169 -166t-182 -121t-186 -46q-35 0 -64.5 14.5t-50 36t-32 48t-11.5 51.5q0 113 51 205t135 163.5t191.5 125t220.5 90t222.5 60t197.5 36.5q23 35 61.5 99.5t84.5 146 t98.5 175t102.5 186.5t94 178t76 151.5t48.5 107.5t9.5 43q-25 -39 -81 -134t-136 -216t-176 -250t-199.5 -235.5t-208 -176t-198.5 -69.5q-43 0 -64.5 26.5t-21.5 69.5q0 72 38 169t96 206t125 222.5t125 218t96 193.5t38 148q0 10 -5 35t-19 25q-104 -221 -263 -396 q-68 -74 -152.5 -144.5t-189 -126.5t-228.5 -90t-269 -34q-156 0 -280 38t-210 88t-132 103.5t-46 84.5zM709 -350q0 -43 36.5 -81t102.5 -38q80 0 159.5 39t157.5 102.5t152 144.5t139.5 167t122.5 168.5t100 148.5q-14 0 -93 -14.5t-186.5 -46t-229 -83t-224 -124 t-170 -167.5t-67.5 -216z" />
<glyph unicode="Z" horiz-adv-x="1234" d="M-80 1153q0 27 27 27q20 0 26 -25q18 -76 91 -130t169.5 -88t200 -49.5t182.5 -15.5q154 0 294.5 47.5t260 121t217 163.5t166 178t106.5 162t38 113q0 10 14 10q8 0 11 -7t3 -11q0 -76 -38.5 -169.5t-101 -194.5t-143.5 -204.5t-165 -200t-165 -181.5t-144.5 -148.5 t-102.5 -100.5l-39 -36q10 2 30 5t44 3q78 0 113 -37t47 -102q29 18 68.5 46.5t81.5 60.5t81 63.5t64 56.5q2 -4 2 -8q0 -6 -21.5 -25.5t-53.5 -46.5t-69.5 -55.5t-70.5 -53t-55.5 -43t-26.5 -22.5q-2 -74 -38 -157t-93.5 -162.5t-131 -151.5t-153.5 -126t-159.5 -87 t-149.5 -33q-45 0 -66.5 21.5t-21.5 52.5q0 39 27.5 80t65.5 80t80 70.5t71 54.5q94 70 191 134t177 115.5t130 86t50 45.5l-4 24q-10 53 -48 76.5t-91 23.5q-29 0 -54.5 -5t-51.5 -13q-6 -2 -36 -22.5t-67 -44t-72.5 -43t-56.5 -19.5q-20 0 -20 12q61 41 135 97 q61 47 142 112.5t171 147.5q170 156 292 299t202 259.5t123 199.5t57 120q-57 -92 -159.5 -207.5t-242 -218t-310.5 -172t-367 -69.5q-121 0 -240 31.5t-212 78.5t-151.5 102.5t-58.5 104.5zM270 -387q0 -29 18.5 -39t47.5 -10q66 0 143.5 30.5t154.5 83t149.5 122t129 145 t90 153.5t35.5 148q-186 -125 -330.5 -221.5t-240.5 -172t-146.5 -134t-50.5 -105.5zM575 279q23 10 69 34.5t91 65.5q-33 -18 -76 -45.5t-84 -54.5z" />
<glyph unicode="[" horiz-adv-x="501" d="M0 254q0 2 16.5 49t44 122t63.5 171t74 198.5t75.5 203t69.5 182.5t53.5 139t29.5 74q10 0 42 1t65.5 1t61.5 1t30 1t4 -2q4 0 4 -6t-8 -7h-187h-4q-100 -283 -205 -560t-209 -560h54h81.5t41 -1t14.5 -3t2 -6t-3 -6t-20.5 -3t-55.5 -1h-109q-8 0 -16.5 2t-8.5 10z" />
<glyph unicode="\" horiz-adv-x="593" d="M0 1288q4 4 4 6t4 2q2 0 32 -44t76 -116.5t104.5 -164.5t118.5 -188.5t117.5 -188.5t101.5 -166t71.5 -118t27.5 -46q0 -6 -8 -6q-6 0 -8 2l-27 42q-28 42 -72 112.5t-99.5 160t-115 183.5t-115.5 186t-102.5 166t-76 122t-33.5 56z" />
<glyph unicode="]" horiz-adv-x="610" d="M0 248q0 6 4 6q2 2 6 2h88q33 -2 60.5 -2h31.5h9q100 283 204.5 560t208.5 560q-6 0 -34.5 1t-59.5 1h-56.5h-27.5h-6q-6 6 -6 8q0 4 10 9q43 2 80 2q33 2 60.5 2h35.5q6 0 19 -4q6 -2 6 -11q0 -4 -17.5 -52t-46 -126t-65.5 -176t-76 -201.5t-76 -202t-66.5 -177 t-49 -130t-21.5 -57.5q-6 -16 -25 -16h-6h-137q-25 -2 -37 -2h-6q-4 4 -4 6z" />
<glyph unicode="^" horiz-adv-x="290" d="M20 492q0 2 18.5 31.5t42 63.5t44 61.5t25.5 27.5q10 0 12 -9.5t2 -17.5q4 -35 14 -66.5t25 -62.5q4 -4 7 -12t3 -12q0 -2 -4 -7q-18 37 -36.5 73t-27.5 79h-4q-31 -39 -60 -85t-54 -77q-6 6 -7 13z" />
<glyph unicode="_" horiz-adv-x="520" d="M12 244q0 8 9.5 10t17.5 2q4 0 30.5 -1t60.5 -1t64.5 -1t38.5 -1q12 0 42 -1t63 -1t59.5 -1t28.5 -1q8 0 16.5 1t12.5 1q14 0 14 -8t-14 -9q-147 -2 -231.5 -3t-125.5 -3q-49 -2 -61 -2t-17 4q-8 4 -8 15z" />
<glyph unicode="`" horiz-adv-x="135" d="M0 1284q0 6 6 6l8 -4q29 -16 43.5 -24.5t22.5 -13.5t9 -8t1 -7q0 -8 -8 -8t-12 6q-25 16 -39.5 26.5t-20.5 15.5t-8 7t-2 4z" />
<glyph unicode="a" horiz-adv-x="483" d="M0 276q0 31 24.5 81.5t60.5 99.5t77 83.5t74 34.5q29 0 41 -21.5t14 -49.5q14 10 18 10q14 0 15 -12q-20 -49 -35 -99q-12 -41 -23.5 -89t-11.5 -87q0 -14 3 -27.5t17 -13.5q23 0 53.5 20.5t63.5 50.5t64.5 65.5t56.5 65.5t41 50l16 21q6 0 6 -4q0 -2 -31.5 -49.5 t-77.5 -102.5t-97.5 -100t-92.5 -45q-29 0 -40 21.5t-11 49.5q0 33 7.5 70t16.5 70.5t17 59.5t8 32q-45 -41 -84.5 -79t-70.5 -67.5t-54.5 -48t-39.5 -18.5q-25 0 -25 28zM27 274q18 10 58 43t81 70t71.5 67.5t30.5 32.5v11.5t-3 20.5t-10 20.5t-19 9.5q-27 0 -63 -33 t-68.5 -78t-55 -91t-22.5 -73z" />
<glyph unicode="b" horiz-adv-x="407" d="M0 207q0 16 20.5 72.5t54.5 137.5t79 179t95 197.5t103.5 192.5t101.5 166t91 117t71 44q29 0 29 -37q0 -35 -30.5 -102.5t-70.5 -139t-80 -136t-61 -95.5q-59 -90 -102 -149.5t-75.5 -99.5t-56.5 -65.5t-40 -48t-29.5 -46t-27.5 -60.5q33 37 65 65q29 25 63.5 45.5 t65.5 20.5q53 0 53 -66q0 -20 -8 -46.5t-21.5 -54.5t-31.5 -53.5t-39 -41.5q35 12 81 51t88 81t74 75.5t38 40.5v-7q0 -2 -17.5 -24.5t-46 -54t-66.5 -67.5t-78 -67.5t-82 -52t-77 -20.5q-47 0 -66.5 19.5t-35.5 45.5q-4 -4 -4 -8t2 -6t2 -6q0 -6 -6.5 -9.5t-10.5 -3.5 q-8 0 -11 6.5t-3 10.5zM47 248q0 -27 21.5 -45.5t44.5 -20.5q45 0 78.5 25.5t57 61.5t35 73t11.5 59q0 16 -8 28.5t-21 12.5q-29 0 -66.5 -25.5t-71.5 -59t-57.5 -65.5t-23.5 -44zM131 477q10 8 50 60.5t95.5 130t117 169t113.5 177.5t86 156.5t34 105.5q0 12 -11 12 q-31 0 -80 -60.5t-103 -149.5t-108.5 -194.5t-97.5 -195.5t-56 -120z" />
<glyph unicode="c" horiz-adv-x="292" d="M6 289q0 39 23.5 89t59.5 94t76 75t71 31q33 0 40 -24t7 -38q0 -10 -7 -10q-8 0 -8 10q0 16 -6 31.5t-26 15.5q-23 0 -58 -26.5t-67.5 -67.5t-56 -90t-23.5 -94q0 -35 32 -35q25 0 66 22.5t85 53t85 64.5t66 59q6 6 10 6t4 -6t-36 -42t-86 -77t-103.5 -74t-87.5 -33 q-25 0 -42.5 15.5t-17.5 50.5z" />
<glyph unicode="d" horiz-adv-x="477" d="M-29 260q0 31 27 79t65.5 93t80.5 78t75 33q39 0 68 -35q39 102 90 201.5t107.5 189.5t114.5 167t109.5 132t92.5 87t63 32q8 0 15.5 -7t7.5 -18q0 -47 -32 -112.5t-83 -140t-115.5 -155.5t-129 -158t-124 -146.5t-100.5 -120.5q-8 -16 -25.5 -63.5t-32 -96.5t-16.5 -88 t21 -39q37 0 81 32t85 76t76.5 91t58.5 80q4 4 6 7t6 3q6 0 6 -6t-34.5 -55.5t-84 -108t-104.5 -105.5t-96 -47q-20 0 -35.5 17.5t-15.5 58.5q0 14 6 41t13 55.5t16.5 54t15.5 37.5q-43 -53 -86 -96q-37 -35 -78 -65.5t-76 -30.5q-20 0 -29.5 14.5t-9.5 34.5zM0 260 q0 -6 3 -13t9 -7q14 0 55.5 29.5t85.5 67.5t77.5 73.5t33.5 48.5q-2 8 -8 28.5t-37 20.5q-23 0 -59.5 -24.5t-72.5 -62.5t-61.5 -81t-25.5 -80zM326 522q4 2 46 49t101 120t128 161t127 173t97 157.5t39 111.5q-57 -33 -131 -112.5t-148.5 -186t-143 -229.5t-115.5 -244z " />
<glyph unicode="e" horiz-adv-x="288" d="M14 311q0 47 31 96.5t73 90.5t85 66.5t69 25.5q25 0 25 -23q0 -16 -14.5 -35.5t-35 -37t-45 -29.5t-42.5 -12q-20 0 -37 14q-29 -31 -53.5 -71t-24.5 -83q0 -23 8 -37t31 -14q29 0 69 22.5t80.5 53.5t76.5 62.5t57 52.5l5 5t5 3q6 0 6 -6q0 -2 -33 -38t-80 -77t-97 -75 t-85 -34q-31 0 -52.5 21.5t-21.5 58.5zM143 485q4 -6 15 -6q6 0 20.5 5t31.5 15.5t33.5 27t26.5 36.5q-12 0 -29.5 -7t-36 -19.5t-35 -26t-26.5 -25.5z" />
<glyph unicode="f" horiz-adv-x="194" d="M-276 -272q0 49 34.5 139t87 196.5t116 218t121.5 201.5t103 147.5t60 57.5q10 0 10 -12q-4 -6 -29.5 -42t-58.5 -85t-67.5 -102.5t-59.5 -96.5q10 -8 25 -8q23 0 53.5 12.5t61 30.5t58 37.5t44.5 34.5q10 6 12 6q10 0 -10 -17q-47 -41 -103.5 -78.5t-113.5 -41.5 q2 -12 3 -22.5t1 -31.5q0 -68 -18.5 -139.5t-46 -138t-63.5 -124.5t-70 -102t-64.5 -70t-49.5 -26q-14 0 -25 12.5t-11 43.5zM-246 -274q0 -8 1 -16.5t12 -8.5q14 0 62 53t98 138t90 189.5t40 205.5q0 29 -4 35t-20 10q-10 -12 -35 -53t-55.5 -97.5t-63.5 -122t-60.5 -128 t-46 -117.5t-18.5 -88z" />
<glyph unicode="g" horiz-adv-x="286" d="M-526 -250q0 49 44 103.5t110.5 108.5t147.5 104.5t154.5 93.5t131 75.5t77.5 49.5q23 59 35 90t12 41q-61 -59 -106 -105.5t-70 -46.5q-23 0 -22 27q0 20 22.5 63t54 87t64.5 77t53 33q25 0 30 -26t5 -42h8q16 0 17 -12q0 -8 -9.5 -31.5t-20.5 -50.5t-21.5 -51.5 t-14.5 -34.5q20 16 47 36.5t54.5 43.5t54 44.5t45.5 35.5l4 2l2 2q4 0 3 -3t-3 -5q-14 -14 -70.5 -63.5t-144.5 -116.5q-12 -25 -38 -81.5t-65.5 -124t-91 -140t-112 -132t-131 -97.5t-148.5 -38q-45 0 -76.5 19.5t-31.5 64.5zM-502 -250q0 -35 24.5 -48t57.5 -13 q68 0 131.5 35.5t121.5 92t107.5 124t88.5 130t64.5 113t33.5 70.5q-117 -76 -229.5 -145.5t-201.5 -133t-143.5 -120t-54.5 -105.5zM12 293q6 -2 34 19.5t60.5 50t58 54t25.5 32.5q0 47 -3 60t-7 13q-14 0 -38.5 -24.5t-50 -60.5t-47.5 -74.5t-32 -69.5z" />
<glyph unicode="h" horiz-adv-x="428" d="M-29 211q0 6 20.5 57t54.5 131t80 178.5t97 201t105.5 200.5t104.5 174t94 122t75 46q16 0 22.5 -12.5t6.5 -28.5q0 -41 -34 -113.5t-85 -159.5t-114.5 -180.5t-123 -175.5t-108.5 -142t-72 -81q-10 -16 -23.5 -43t-25.5 -55q-15 -33 -29 -68q18 23 49 60.5t68 73.5 t74 61.5t65 25.5q18 0 26.5 -12t8.5 -31q0 -14 -3 -48t-3 -46q0 -10 3 -21.5t13 -11.5q20 0 55.5 20.5t55.5 37.5q16 14 34.5 32.5t35 34t28 25.5t13.5 10t2 -4t-26 -32.5t-61.5 -62.5t-74.5 -61.5t-66 -27.5q-25 0 -34 23.5t-9 47.5q0 18 3 45t3 43q0 12 -6 13 q-10 0 -26.5 -8.5t-32.5 -20.5t-31.5 -25.5t-25.5 -21.5q-37 -33 -66 -66.5t-48.5 -59.5t-33.5 -42t-24 -16q-4 0 -7.5 5t-3.5 9zM119 494q16 16 58 71.5t96.5 132t113.5 164.5t107.5 170t80 148.5t31.5 99.5q0 10 -2 16q-27 0 -69.5 -51t-93 -130t-101.5 -175t-96 -185 t-79 -160t-46 -101z" />
<glyph unicode="i" horiz-adv-x="348" d="M0 229q0 47 21.5 107.5t49 115t52 92.5t29.5 38q8 0 8 -19q0 -10 -21.5 -47t-46 -86t-46 -103.5t-21.5 -101.5q0 -20 8 -33.5t28 -13.5q41 0 93.5 33t104.5 77t98 91t75 76l4 4t6 4q8 0 0 -8q-10 -10 -34.5 -38t-57.5 -61.5t-71.5 -70.5t-77.5 -67t-76 -49t-66 -19 q-33 0 -46 22.5t-13 56.5zM197 690q0 8 7 16.5t17 8.5q18 0 19 -21q0 -10 -7.5 -17t-17.5 -7q-18 0 -18 20z" />
<glyph unicode="j" horiz-adv-x="151" d="M-647 -248q0 41 39 89t99 99.5t136 101.5t149.5 95t139.5 84t104 66q6 12 21.5 54t32 88t30.5 83l13 37q6 10 14 10q14 0 14 -16q0 -8 -12 -44t-28.5 -77t-30 -76t-17.5 -43q23 12 50.5 34.5t55 45.5t51.5 44.5t34 33.5q6 0 -5.5 -14.5t-36 -39t-63.5 -55t-90 -63.5 q-8 -23 -32.5 -77t-61.5 -123t-87 -143.5t-113.5 -136t-138.5 -101.5t-161 -40q-43 0 -74.5 20.5t-31.5 63.5zM-623 -248q0 -35 23.5 -47t58.5 -12q66 0 128.5 32.5t118.5 85t105.5 116t89.5 127t68.5 119.5t44.5 91q-29 -18 -87 -53t-128.5 -79t-145.5 -94t-136.5 -101.5 t-100.5 -98.5t-39 -86zM156 705q0 8 7 16t15 8q20 0 21 -20q0 -10 -7.5 -17.5t-17.5 -7.5q-18 0 -18 21z" />
<glyph unicode="k" horiz-adv-x="370" d="M-27 209q0 6 20.5 58t55.5 131t82 178.5t98.5 202t105.5 199.5t103 173t92 122t74 46q16 0 22.5 -12.5t6.5 -28.5q0 -23 -19.5 -70t-52.5 -108.5t-75 -134t-89 -144t-94 -140.5t-90 -122q-47 -59 -83 -95t-46 -71q10 8 31.5 27.5t48 39t55.5 35t53 15.5q33 0 33 -39 q0 -29 -25.5 -57.5t-61.5 -54t-76 -44t-68 -28.5q16 -25 36.5 -43.5t49.5 -18.5q41 0 89 34t92 76t76 79t40 41q4 2 10 2v-4q0 -6 -33 -46t-81 -86.5t-101 -83t-94 -36.5t-69 27.5t-50 62.5q-12 -20 -23.5 -40t-19.5 -42q-2 -14 -10 -14q-12 0 -13 14zM55 315q4 -8 13 -8 q10 0 44.5 16.5t72.5 41t68 54t30 56.5q0 6 -2 12q-31 -4 -65 -22.5t-65.5 -44t-57 -54t-38.5 -51.5zM119 481q4 2 42 52.5t92 128t116.5 171t116 181.5t88 159.5t34.5 106.5v14q-29 -6 -75 -63t-98 -140t-105.5 -180.5t-97.5 -185.5t-74.5 -154.5t-38.5 -89.5z" />
<glyph unicode="l" horiz-adv-x="288" d="M33 287q0 61 33.5 160.5t86 213t118 229.5t128 209t116.5 152.5t85 59.5q16 0 23.5 -12.5t7.5 -28.5q0 -31 -26.5 -91.5t-71 -137t-100.5 -162.5t-115.5 -167t-116 -149.5t-99.5 -111.5q-23 -41 -33 -87.5t-10 -80.5q0 -16 3.5 -31.5t17.5 -15.5q20 0 50 16t60.5 39.5 t62.5 52.5t56.5 53.5l40.5 40.5l15 17q2 0 3 1t3 1q4 0 4 -8q0 -4 -16.5 -23.5t-43 -46.5t-60.5 -57.5t-66.5 -56t-62.5 -42t-48 -16.5q-29 0 -37 22.5t-8 57.5zM115 494q16 14 59 67t97.5 128t114.5 161t109.5 169t81 152.5t31.5 108.5q0 8 -6 8q-27 0 -70 -49t-93 -126 t-103 -170t-98 -181t-79 -160.5t-44 -107.5z" />
<glyph unicode="m" horiz-adv-x="528" d="M-16 264q0 16 25.5 73.5t57 119t62.5 109.5t41 48q8 0 8 -16q0 -6 -22.5 -47t-48 -89t-48 -89t-22.5 -47q8 10 37.5 47t66.5 76.5t73 72.5t54 33q10 0 11.5 -6t1.5 -21q0 -14 -4.5 -28.5t-10.5 -34t-14 -50t-14 -79.5q16 0 46.5 30.5t62.5 67.5t60.5 67.5t36.5 30.5 q12 0 13 -32q0 -6 -5.5 -27.5t-12.5 -49.5t-12 -57.5t-5 -50.5q0 -20 8 -20q12 0 37 20.5t53.5 47t55 54t38.5 42.5q4 6 9 6q6 0 6 -6q0 -4 -24.5 -35t-58.5 -66.5t-68 -65.5t-52 -30q-12 0 -23.5 12.5t-11.5 40.5q0 25 6 52.5t14.5 53t14.5 46t6 29.5q-27 -23 -54.5 -54.5 t-52 -59.5t-46 -47.5t-35.5 -19.5q-10 0 -18.5 9.5t-8.5 33.5q0 29 13.5 73t25.5 101q-33 -23 -63.5 -56.5t-57.5 -65.5q-43 -51 -66.5 -84t-37 -51.5t-19.5 -25.5t-14 -7q-14 0 -14 22z" />
<glyph unicode="n" horiz-adv-x="378" d="M-14 272q0 14 25.5 66.5t58 109t61.5 100.5t35 44q10 0 10 -14q0 -8 -16.5 -35t-38 -62t-42 -69.5t-28.5 -57.5q8 10 34 39t56.5 61.5t62.5 57.5t52 25q12 0 12 -25q0 -6 -6 -28.5t-13 -50t-13.5 -56.5t-6.5 -49q0 -16 3.5 -35t15.5 -19q25 0 55.5 21.5t61 51.5 t57.5 59.5t41 48.5q6 8 10 8q6 0 6 -6q0 -4 -25.5 -37t-60.5 -70t-73.5 -67.5t-65.5 -30.5q-29 0 -40 21.5t-11 50.5q0 16 2 30.5t8 35t14.5 50t20.5 72.5q-18 -6 -42 -24.5t-46.5 -41t-43 -46t-30.5 -38.5q-27 -35 -42 -56t-23.5 -33.5t-12.5 -16.5t-10 -4q-12 0 -12 20z " />
<glyph unicode="o" horiz-adv-x="258" d="M16 315q0 29 9.5 52.5t21.5 41t22.5 32t10.5 24.5q4 47 40 81t70 34q31 0 44.5 -24t13.5 -52q0 -35 -12.5 -70t-18.5 -47q41 10 68.5 23.5t44.5 25.5q20 12 32 27q3 0 3 -4q0 -12 -20.5 -28.5t-48.5 -30t-54.5 -23.5t-38.5 -15q-8 -16 -22.5 -36.5t-32 -38t-37 -29.5 t-37.5 -12q-29 0 -43.5 20.5t-14.5 48.5zM43 313q0 -18 5.5 -31.5t21.5 -13.5t35.5 12.5t36 29t27.5 31.5t11 19q-31 4 -57.5 17.5t-40.5 46.5q-16 -27 -27.5 -54.5t-11.5 -56.5zM102 444q0 -20 21.5 -39.5t69.5 -19.5q8 0 10 6q12 25 22.5 52.5t10.5 56.5q0 23 -10.5 43 t-32.5 20q-23 0 -47.5 -20.5t-41.5 -61.5q6 2 9.5 3t7.5 1q6 0 6 -8q0 -6 -12.5 -11t-12.5 -22z" />
<glyph unicode="p" horiz-adv-x="423" d="M-311 -327q0 5 8 5q35 0 76 66t85 165t88 214t84 214t73.5 164.5t56.5 65.5q18 0 12 -3t-10 -7t-13.5 -16.5t-13.5 -18.5q-16 -35 -32.5 -69.5t-34.5 -77.5q20 25 51 58.5t66.5 64t72.5 52t68 21.5q27 0 37 -17t10 -44q0 -51 -21.5 -99.5t-49.5 -88t-56.5 -68.5 t-40.5 -39q27 8 67.5 33.5t83.5 59.5t83 72t65 69q10 12 12 12q4 0 1 -6t-9 -15q-16 -20 -60.5 -63t-99.5 -87t-115.5 -77t-109.5 -33q-39 0 -64.5 32t-33.5 56q-20 -43 -45 -104.5t-52.5 -128t-55.5 -132t-57.5 -117.5t-59 -85t-58.5 -33q-8 0 -8 5zM37 293q0 -8 5 -24.5 t14.5 -31t25.5 -25.5t37 -11q35 0 74.5 31.5t74.5 78.5t58.5 100.5t25.5 94.5q-2 16 -4 31.5t-20 15.5q-37 0 -87.5 -37t-95.5 -84t-76.5 -88t-31.5 -51z" />
<glyph unicode="q" horiz-adv-x="385" d="M-45 -205q0 70 31.5 159t77 181t93.5 176t79 146q-51 -68 -97 -119q-41 -47 -79.5 -84t-61.5 -37q-27 0 -27 33q0 29 27 84t65.5 109.5t79.5 94.5t68 40q29 0 33 -34q3 -23 3 -44q0 -11 -1 -21q27 45 36 56.5t13 11.5q8 0 8 -10q0 -8 -12 -32t-31.5 -57.5t-43 -75.5 t-48.5 -85q16 -4 22 -4q31 0 73 18t82 44t74 54.5t50 46.5l12 13q2 2 4 2q4 0 -2 -8.5t-8 -12.5q-8 -10 -34.5 -36.5t-66.5 -55.5t-90.5 -54.5t-103.5 -31.5q6 -18 12.5 -38.5t6.5 -55.5q0 -45 -20.5 -119t-51.5 -145.5t-66.5 -123.5t-66.5 -52q-23 0 -31 22.5t-8 44.5z M-18 -205q0 -16 3 -29.5t9 -13.5q20 0 52 51.5t61.5 121t51 141t21.5 112.5q0 20 -4 46t-18 42q-6 -10 -21.5 -38.5t-35 -68.5t-41 -88t-39 -97.5t-28.5 -95.5t-11 -83zM-6 246q0 -4 2 -4q16 0 55 32.5t78 74.5t68.5 82t29.5 54q0 20 -2 45t-14 25q-23 0 -59.5 -39 t-71.5 -89t-60.5 -100.5t-25.5 -72.5v-8z" />
<glyph unicode="r" horiz-adv-x="272" d="M35 211q0 25 9 54.5t21.5 57t21.5 52t9 41.5q0 16 -9 27.5t-19.5 23.5t-19.5 27.5t-9 35.5q0 18 11 37t26.5 32t32 21.5t28.5 8.5q10 0 19.5 -8.5t9.5 -22.5q0 -12 -8 -32.5t-19.5 -41t-22 -38t-14.5 -23.5q18 -25 19 -51q0 -18 -9.5 -44t-20.5 -53.5t-20.5 -55.5 t-9.5 -50q0 -6 1 -24.5t18 -18.5q16 0 43 20.5t57.5 50t61 65.5t56.5 67.5t43 54t21 27.5q4 4 7 4q8 0 0 -15q-14 -25 -51 -75t-81 -100t-86 -88t-71 -38q-25 0 -35 23.5t-10 48.5zM61 532q0 -18 10.5 -33.5t24.5 -25.5q23 37 40.5 67.5t17.5 51.5q0 23 -17 22 q-8 0 -21.5 -7t-25.5 -19.5t-20.5 -26.5t-8.5 -29z" />
<glyph unicode="s" horiz-adv-x="210" d="M-57 174q0 20 24.5 42t57 42.5t62.5 35.5l42 21q-37 72 -49 104t-12 54q0 18 7 38.5t18 38t26.5 30t30.5 12.5q20 0 20 -23q0 -31 -27.5 -66.5t-52.5 -56.5q8 -37 23.5 -63.5t31.5 -58.5q31 23 71 54.5t85 84.5q4 4 8 4q6 0 0 -10q-35 -41 -84 -84t-75 -60 q10 -20 17 -42.5t7 -45.5q0 -45 -47 -71.5t-100 -26.5q-29 0 -56.5 10t-27.5 37zM-39 176q0 -16 20.5 -23.5t41.5 -7.5q23 0 46 5.5t42.5 15.5t33 24.5t13.5 34.5t-7.5 42t-15.5 36q-12 -8 -42 -22.5t-58.5 -32t-51 -36.5t-22.5 -36zM86 479q0 -12 2 -18q6 6 17.5 18.5 t23.5 28.5t20.5 33.5t8.5 31.5q0 6 -4 7q-12 0 -24.5 -11.5t-22 -27t-15.5 -33t-6 -29.5z" />
<glyph unicode="t" horiz-adv-x="378" d="M20 248q0 51 33 137t85 188.5t115.5 211t123.5 204.5q-53 -6 -112.5 -16t-106.5 -10q-33 0 -52.5 7t-19.5 29q0 4 3 11.5t9 7.5q10 0 11 -10q0 -12 10 -18.5t43 -6.5q31 0 85 6t142 21q39 61 73 113.5t60 90.5q29 45 56 82q6 0 9 -7t3 -11q-23 -33 -49 -74 q-23 -35 -54.5 -84t-68.5 -108l10 2h12q12 0 42 2t65 2q49 0 93 -6t44 -27q0 -12 -8 -12q-2 2 -2 4q0 14 -32 19t-73 5q-47 0 -95 -3t-68 -7q-59 -96 -124 -205.5t-117 -212t-86 -188.5t-34 -135q0 -31 12.5 -48.5t44.5 -17.5q55 0 110.5 36t105 82t86 91t53.5 64 q10 10 12 10q14 0 0 -21q-18 -23 -59 -69.5t-92.5 -95t-107.5 -85t-106 -36.5q-41 0 -62.5 24.5t-21.5 63.5z" />
<glyph unicode="u" horiz-adv-x="393" d="M39 328q0 20 10 50t25.5 61.5t31 59t23.5 44.5q4 8 12 8t9 -8q0 -2 -14.5 -29t-33 -60.5t-33 -68t-14.5 -57.5q0 -27 13 -27q20 0 56 39t74 87t70.5 87t46.5 39q12 0 7 -10q-8 -16 -28 -51t-40.5 -78t-36.5 -87t-16 -81q0 -10 6 -21.5t16 -11.5q25 0 62 30.5t73.5 70.5 t67.5 79t43 56q10 12 14 12q8 0 -2 -17q-12 -16 -43.5 -57t-70.5 -84t-78 -75.5t-66 -32.5q-16 0 -29.5 14t-13.5 41q0 31 14.5 71.5t33 79.5t36 70t21.5 39q-27 -33 -57.5 -73t-59.5 -73.5t-54.5 -56t-45.5 -22.5q-16 0 -22.5 13t-6.5 30z" />
<glyph unicode="v" horiz-adv-x="272" d="M31 291q0 16 8 47t19.5 61.5t22.5 58t19 38.5l4 6q8 0 9 -13q0 -4 -10.5 -29.5t-22.5 -58t-22.5 -64.5t-10.5 -48q0 -6 2 -13.5t8 -7.5q12 0 33 17.5t41.5 39t37.5 42t21 28.5q0 33 13.5 72t34 71.5t42 54t35.5 21.5q10 0 11 -12q0 -16 -14.5 -47t-34 -62.5t-39 -60.5 t-31.5 -41q2 -10 7 -18t17 -8q18 0 41 15t43.5 34.5t33.5 36t16 16.5q4 4 4 -2q0 -4 -14.5 -22.5t-36 -39t-46 -37t-45.5 -16.5q-16 0 -23 10.5t-9 16.5q-35 -47 -72 -88t-66 -41q-16 0 -21 13t-5 30zM205 410q8 10 25.5 34.5t35 53t30.5 55.5t13 37v6h-2q-12 0 -29.5 -23.5 t-34 -54.5t-27.5 -61.5t-11 -46.5z" />
<glyph unicode="w" horiz-adv-x="413" d="M25 276q0 12 9 49t23.5 76t29.5 70t28 31q4 0 4 -4l-15 -36q-16 -36 -32.5 -79t-26.5 -79t0 -36t37 38t57.5 83t55 83t26.5 38q6 0 6 -6q-20 -51 -34 -101q-12 -43 -23.5 -89t-11.5 -81q0 -31 22 -30q20 0 50 24.5t57.5 55t47 57.5t21.5 31q-4 8 -5 15t-1 20 q0 29 11.5 57.5t28 52t33.5 38.5t28 15q10 0 10 -16q0 -18 -10.5 -44t-24.5 -51.5t-28.5 -49t-20.5 -37.5q4 -6 8 -6q12 0 29.5 12t35 28.5t32 33t22.5 24.5q4 4 6 4q6 0 0 -10q-6 -8 -22.5 -25.5t-35 -36t-37 -32t-32.5 -13.5q-12 0 -16 6q-14 -18 -36 -47.5t-47.5 -57.5 t-52 -48.5t-51.5 -20.5q-41 0 -41 54q0 23 6.5 54.5t14.5 61.5q8 35 20 72q-51 -82 -84 -129t-53 -47q-18 0 -18 28zM369 387q8 10 21 32.5t25.5 47.5t21.5 48.5t9 35.5q-10 0 -25 -19.5t-29.5 -45t-21.5 -53.5t-1 -46z" />
<glyph unicode="x" horiz-adv-x="296" d="M27 256q0 4 8 15.5t18 25.5t20.5 29.5t16.5 25.5l-1 24q-1 23 -4 53t-7 58.5t-10 38.5q-6 8 -13 9h-6q-2 -2 -4 -3q-12 0 -11 12.5t17 12.5q23 0 35 -20.5t18.5 -49t7.5 -58.5t3 -48q12 14 38.5 51t53 77t50.5 70.5t30 30.5q12 0 12 -12q0 -6 -27.5 -45t-61.5 -84 t-61.5 -82t-27.5 -39t3 -17.5t9 -32.5t15.5 -31.5t21.5 -14.5q18 0 80.5 55t136.5 156q4 6 8 6q6 0 0 -10q-8 -14 -35.5 -53t-62.5 -79t-69.5 -72t-59.5 -32q-14 0 -26.5 11.5t-21.5 26.5t-14.5 34t-9.5 31q-31 -37 -45 -56.5t-18 -19.5q-6 0 -6 6z" />
<glyph unicode="y" horiz-adv-x="331" d="M-475 -250q0 49 44 103.5t110.5 108.5t147.5 104.5t154.5 93.5t130 75.5t76.5 49.5q29 59 49.5 102t47.5 105q-35 -37 -67 -71t-59.5 -60.5t-49 -43t-37.5 -16.5t-21.5 18.5t-5.5 30.5q0 27 14.5 63t34 67.5t36.5 54t24 22.5q10 0 10 -10q0 -6 -15.5 -26.5t-33 -48.5 t-32.5 -59.5t-15 -62.5q0 -20 4 -20q12 0 49 33.5t78 73.5t74.5 74t39.5 34q14 0 15 -17q0 -10 -30 -71.5t-71 -153.5q18 16 45 36.5t55.5 43.5t55.5 44.5t45 35.5l4 2l2 2q4 0 3 -3t-5 -5q-12 -14 -69.5 -63.5t-143.5 -116.5q-12 -25 -37.5 -81.5t-65.5 -124t-91.5 -140 t-113 -132t-132 -97.5t-148.5 -38q-43 0 -74.5 19.5t-31.5 64.5zM-451 -250q0 -35 23.5 -48t58.5 -13q68 0 131.5 35.5t122 92t107.5 124t87 130t63.5 112.5t33.5 71q-117 -76 -228.5 -145.5t-200.5 -133t-143.5 -120t-54.5 -105.5z" />
<glyph unicode="z" horiz-adv-x="333" d="M-502 -256q0 31 26.5 63.5t63.5 64.5t76 58.5t64 42.5q199 125 324.5 204t150.5 93q-2 37 -47 37q-23 0 -63 -15.5t-81 -49.5q-10 -8 -18 -9q-8 0 -8 15q0 10 33.5 45t73.5 75t73 75.5t33 45.5q-16 0 -34 -5t-34 -11q-18 -8 -37 -16q-6 0 -9 5t-3 9q0 8 14.5 17.5 t34 16.5t38.5 11t28 4q27 0 26 -26q0 -10 -19.5 -35t-47 -55.5t-59 -62.5t-56.5 -56q4 4 18.5 10t30.5 12t33.5 11.5t30.5 5.5q14 0 36.5 -10.5t28.5 -32.5q66 47 120 96t95 90q6 6 7 5t1 -5q0 -8 -26.5 -34.5t-62.5 -59.5t-72.5 -63.5t-59.5 -45.5q-4 -47 -37.5 -108.5 t-86 -126t-118 -126t-137 -109.5t-143.5 -77.5t-133 -29.5q-29 0 -48.5 17t-19.5 40zM-479 -262q0 -12 19.5 -22.5t37.5 -10.5q49 0 112.5 26.5t130 70.5t131 101.5t117 118t88.5 121t44 109.5q-31 -23 -94.5 -60.5t-139.5 -84t-154.5 -97.5t-143 -100t-106.5 -94t-42 -78z " />
<glyph unicode="&#xa0;" />
<glyph unicode="&#x2000;" horiz-adv-x="892" />
<glyph unicode="&#x2001;" horiz-adv-x="1784" />
<glyph unicode="&#x2002;" horiz-adv-x="892" />
<glyph unicode="&#x2003;" horiz-adv-x="1784" />
<glyph unicode="&#x2004;" horiz-adv-x="594" />
<glyph unicode="&#x2005;" horiz-adv-x="446" />
<glyph unicode="&#x2006;" horiz-adv-x="297" />
<glyph unicode="&#x2007;" horiz-adv-x="297" />
<glyph unicode="&#x2008;" horiz-adv-x="223" />
<glyph unicode="&#x2009;" horiz-adv-x="356" />
<glyph unicode="&#x200a;" horiz-adv-x="99" />
<glyph unicode="&#x202f;" horiz-adv-x="356" />
<glyph unicode="&#x205f;" horiz-adv-x="446" />
<glyph unicode="&#x25fc;" horiz-adv-x="614" d="M0 0v614h614v-614h-614z" />
</font>
</defs>
</svg>
